<?xml version="1.0" encoding="utf-8"?>
<!-- Generator: Adobe Illustrator 18.0.0, SVG Export Plug-In . SVG Version: 6.00 Build 0)  -->
<!DOCTYPE svg PUBLIC "-//W3C//DTD SVG 1.1//EN" "http://www.w3.org/Graphics/SVG/1.1/DTD/svg11.dtd">
<svg version="1.1" id="Layer_1" xmlns="http://www.w3.org/2000/svg" xmlns:xlink="http://www.w3.org/1999/xlink" x="0px" y="0px"
	 viewBox="0 0 1003.1 270" enable-background="new 0 0 1003.1 270" xml:space="preserve">
<g>
	<path d="M151,119.8h-1.7l-15.7-43.8l-13.7,43.8h-1.8l-12.4-41.3c-1.1-3.8-1.9-6.3-2.4-7.5c-0.5-1.2-1.1-2.2-1.9-2.7
		c-0.8-0.6-2.1-0.9-4-1v-1.8h19.3v1.8c-2.3,0.2-3.8,0.5-4.5,1c-0.7,0.5-1,1.3-1,2.3c0,0.9,0.5,3.1,1.6,6.6l9.2,30.9l13.5-42.6h2.1
		l15.1,42.6l7.9-28.2c1-3.8,1.6-6.3,1.6-7.5c0-3.4-1.8-5.2-5.4-5.2v-1.8h14.1v1.8c-2.1,0.2-3.6,0.9-4.6,2.4c-1,1.4-2.3,4.8-3.8,10.2
		L151,119.8z"/>
	<path d="M195.7,97.3H174c-0.1,1.5-0.2,2.7-0.2,3.4c0,5.6,0.9,9.9,2.6,12.7c1.7,2.8,4.3,4.2,7.7,4.2c4.6,0,7.9-2.1,9.8-6.4h1.8
		c-0.8,2.7-2.4,4.7-4.8,6.2c-2.4,1.5-5,2.3-7.9,2.3c-2.6,0-5.1-0.7-7.5-2.1s-4.3-3.3-5.8-5.8c-1.5-2.5-2.2-5.5-2.2-9.1
		c0-5.1,1.4-9.3,4.3-12.6c2.9-3.4,6.5-5,10.8-5c4.1,0,7.2,1.3,9.5,3.8C194.4,91.6,195.6,94.4,195.7,97.3z M189,95.8
		c0.1-0.6,0.1-1.1,0.1-1.6c0-2.3-0.7-4.1-2-5.3c-1.3-1.3-2.9-1.9-4.8-1.9c-4.6,0-7.4,2.9-8.2,8.8H189z"/>
	<path d="M239.5,88.3h-9.4v19.4c0,3,0.1,5,0.4,6c0.3,1,0.8,1.9,1.6,2.5c0.8,0.6,1.7,0.9,2.6,0.9c1.8,0,3.4-1.1,4.7-3.2l1.2,0.7
		c-0.8,1.7-1.9,3-3.5,3.9c-1.5,0.9-3.1,1.3-4.7,1.3c-1.8,0-3.4-0.6-4.8-1.7c-1.4-1.1-2.2-2.4-2.6-3.9c-0.3-1.5-0.5-4.1-0.5-7.8V88.3
		h-4.5v-1.8c2.1-0.1,3.9-1,5.6-2.7c1.6-1.7,2.7-4.2,3.2-7.4h1.2v10.1h9.4V88.3z"/>
	<path d="M253.5,91.8c1.5-2.2,3.2-3.8,5.1-4.9c1.9-1.1,4-1.6,6.2-1.6c2.6,0,4.7,0.5,6.4,1.6c1.7,1.1,2.8,2.4,3.3,4.1
		c0.5,1.6,0.8,4.2,0.8,7.8v8.8c0,3.8,0.1,6,0.2,6.8c0.1,0.8,0.6,1.4,1.2,1.8c0.7,0.4,2,0.6,3.8,0.6v1.8h-16.1v-1.8h0.7
		c1.8,0,3-0.3,3.6-0.8c0.5-0.5,0.9-1.2,1-1.9c0.1-0.7,0.1-2.9,0.1-6.4v-9.6c0-2.7-0.2-4.6-0.5-5.9c-0.3-1.3-1-2.3-2.1-3.2
		c-1.1-0.8-2.5-1.3-4.2-1.3c-2,0-3.7,0.6-5.3,1.8c-1.6,1.2-3,3-4.1,5.3v12.8c0,3.6,0.1,5.8,0.2,6.7c0.1,0.8,0.5,1.5,1.2,1.9
		c0.7,0.4,1.9,0.6,3.6,0.6v1.8h-15.8v-1.8h0.8c1.8,0,3-0.3,3.6-0.8c0.5-0.5,0.9-1.2,0.9-1.9s0.1-2.9,0.1-6.5V75.6
		c0-3.2-0.3-5.3-0.9-6.1c-0.6-0.9-2-1.3-4.3-1.3v-1.8c3.9,0,7.2-0.5,9.8-1.6h0.8V91.8z"/>
	<path d="M313.2,97.3h-21.7c-0.1,1.5-0.2,2.7-0.2,3.4c0,5.6,0.9,9.9,2.6,12.7c1.7,2.8,4.3,4.2,7.7,4.2c4.6,0,7.9-2.1,9.8-6.4h1.8
		c-0.8,2.7-2.4,4.7-4.8,6.2c-2.4,1.5-5,2.3-7.9,2.3c-2.6,0-5.1-0.7-7.5-2.1s-4.3-3.3-5.8-5.8c-1.5-2.5-2.2-5.5-2.2-9.1
		c0-5.1,1.4-9.3,4.3-12.6c2.9-3.4,6.5-5,10.8-5c4.1,0,7.2,1.3,9.5,3.8C311.9,91.6,313.1,94.4,313.2,97.3z M306.6,95.8
		c0.1-0.6,0.1-1.1,0.1-1.6c0-2.3-0.7-4.1-2-5.3c-1.3-1.3-2.9-1.9-4.8-1.9c-4.6,0-7.4,2.9-8.2,8.8H306.6z"/>
	<path d="M353.5,93.6v11.2c0,4.2,0.1,6.9,0.3,8.2s0.7,2.3,1.5,2.9c0.8,0.6,2.4,0.9,4.7,0.9h1.7v1.8h-23.6v-1.8h1.4
		c2.2,0,3.7-0.3,4.6-0.9c0.8-0.6,1.4-1.5,1.6-2.7s0.3-4,0.3-8.5v-26c0-4.2-0.1-7-0.3-8.2c-0.2-1.2-0.7-2.1-1.5-2.5
		c-0.8-0.5-2.5-0.7-5.1-0.7h-1v-1.8l6.5-0.2c5.2-0.2,9.2-0.3,12.1-0.3c5.3,0,9.4,0.4,12.3,1.3c2.9,0.9,5.2,2.4,7.1,4.6
		c1.8,2.2,2.8,5,2.8,8.3c0,2.9-0.6,5.5-1.9,7.7c-1.3,2.2-3.1,3.9-5.4,5c-2.3,1.1-6.5,1.7-12.4,1.7H353.5z M353.5,91.6h3.7
		c3,0,5.4-0.3,7.2-0.9c1.8-0.6,3.3-1.9,4.6-3.9s1.8-4.4,1.8-7.2c0-4.4-1-7.6-3.1-9.6c-2.1-2-5.5-3.1-10.2-3.1c-1.7,0-3,0.1-4,0.2
		V91.6z"/>
	<path d="M406.8,97.3h-21.7c-0.1,1.5-0.2,2.7-0.2,3.4c0,5.6,0.9,9.9,2.6,12.7c1.7,2.8,4.3,4.2,7.7,4.2c4.6,0,7.9-2.1,9.8-6.4h1.8
		c-0.8,2.7-2.4,4.7-4.8,6.2c-2.4,1.5-5,2.3-7.9,2.3c-2.6,0-5.1-0.7-7.5-2.1s-4.3-3.3-5.8-5.8c-1.5-2.5-2.2-5.5-2.2-9.1
		c0-5.1,1.4-9.3,4.3-12.6c2.9-3.4,6.5-5,10.8-5c4.1,0,7.2,1.3,9.5,3.8C405.5,91.6,406.7,94.4,406.8,97.3z M400.2,95.8
		c0.1-0.6,0.1-1.1,0.1-1.6c0-2.3-0.7-4.1-2-5.3c-1.3-1.3-2.9-1.9-4.8-1.9c-4.6,0-7.4,2.9-8.2,8.8H400.2z"/>
	<path d="M412.7,102.5c0-4.9,1.6-9,4.8-12.3c3.2-3.3,7.1-5,11.8-5c4.7,0,8.6,1.7,11.8,5c3.2,3.3,4.8,7.4,4.8,12.3
		c0,5.4-1.6,9.6-4.9,12.7c-3.2,3.1-7.2,4.6-11.7,4.6c-4.6,0-8.5-1.6-11.7-4.7C414.3,112,412.7,107.8,412.7,102.5z M419,102.7
		c0,5.7,0.9,9.7,2.7,12c1.8,2.3,4.3,3.4,7.6,3.4c3.3,0,5.9-1.1,7.6-3.4c1.8-2.3,2.6-6.3,2.6-12c0-5.6-0.9-9.7-2.6-12.1
		c-1.7-2.4-4.3-3.6-7.6-3.6c-3.3,0-5.9,1.2-7.6,3.6C419.9,93,419,97,419,102.7z"/>
	<path d="M458.3,85.2h1c0.4,1.5,0.6,3.2,0.6,5.3c1.6-1.8,3.4-3.1,5.2-4c1.9-0.9,3.8-1.3,5.9-1.3c4.3,0,7.9,1.6,10.8,4.7
		c2.9,3.1,4.3,7.2,4.3,12.3c0,5-1.4,9.2-4.3,12.6s-6.7,5-11.3,5c-1.9,0-3.8-0.4-5.5-1.2c-1.8-0.8-3.4-2-5-3.5v12.2
		c0,3.7,0.1,6,0.2,6.8c0.1,0.8,0.5,1.4,1.2,1.8c0.7,0.4,1.9,0.6,3.7,0.6v1.8h-16.3v-1.8h1.1c1.8,0,3-0.3,3.5-0.8
		c0.5-0.5,0.9-1.2,1-1.9s0.1-2.9,0.1-6.5V98.2c0-3.4,0-5.6-0.1-6.5c-0.1-0.9-0.5-1.6-1.1-2c-0.6-0.5-1.8-0.7-3.4-0.7h-1.1v-1.8
		C451.3,86.9,454.5,86.3,458.3,85.2z M460,112.5c1.4,1.7,2.8,3,4.4,3.9c1.5,0.9,3.1,1.3,4.8,1.3c2.9,0,5.4-1.3,7.5-3.8
		s3.2-6.6,3.2-12.1c0-4.8-1-8.4-3.1-10.8c-2.1-2.4-4.5-3.6-7.3-3.6c-1.7,0-3.4,0.5-5,1.4c-1.6,0.9-3.1,2.3-4.5,4.1V112.5z"/>
	<path d="M501.2,64.7v42.8c0,3.4,0,5.6,0.1,6.5c0.1,0.9,0.4,1.6,1.1,2c0.6,0.5,1.8,0.7,3.4,0.7h0.9v1.8h-16.6v-1.8h1.1
		c1.5,0,2.6-0.2,3.2-0.6c0.6-0.4,1-1,1.2-1.8s0.2-3,0.2-6.7V75.9c0-3.4-0.3-5.5-0.9-6.4c-0.6-0.9-2-1.3-4.3-1.3v-1.8
		c1.5,0,3.4-0.2,5.5-0.5c2.1-0.4,3.5-0.7,4.3-1.1H501.2z"/>
	<path d="M539,97.3h-21.7c-0.1,1.5-0.2,2.7-0.2,3.4c0,5.6,0.9,9.9,2.6,12.7c1.7,2.8,4.3,4.2,7.7,4.2c4.6,0,7.9-2.1,9.8-6.4h1.8
		c-0.8,2.7-2.4,4.7-4.8,6.2c-2.4,1.5-5,2.3-7.9,2.3c-2.6,0-5.1-0.7-7.5-2.1c-2.3-1.4-4.3-3.3-5.8-5.8c-1.5-2.5-2.2-5.5-2.2-9.1
		c0-5.1,1.4-9.3,4.3-12.6c2.9-3.4,6.5-5,10.8-5c4.1,0,7.2,1.3,9.5,3.8C537.7,91.6,538.9,94.4,539,97.3z M532.3,95.8
		c0.1-0.6,0.1-1.1,0.1-1.6c0-2.3-0.7-4.1-2-5.3c-1.3-1.3-2.9-1.9-4.8-1.9c-4.6,0-7.4,2.9-8.2,8.8H532.3z"/>
	<path d="M597.5,109.4l18.8-43.9h15.8v1.8h-1.9c-2.5,0-4.2,0.2-5,0.6c-0.8,0.4-1.3,1.2-1.6,2.4c-0.3,1.2-0.4,4-0.4,8.4v26
		c0,4.2,0.1,6.9,0.3,8.2c0.2,1.3,0.7,2.3,1.5,2.9c0.8,0.6,2.4,0.9,4.7,0.9h2.3v1.8h-24.6v-1.8h1.8c2.2,0,3.7-0.3,4.5-0.9
		c0.8-0.6,1.4-1.5,1.6-2.7c0.2-1.2,0.4-4,0.4-8.5V71l-20.4,47.6h-1.8L573.1,71V102c0,4.3,0.1,7.1,0.4,8.7c0.3,1.5,1,2.9,2.4,4.1
		c1.3,1.2,3.2,1.8,5.5,2v1.8h-18.4v-1.8c2.2-0.1,4-0.8,5.4-1.9c1.4-1.1,2.2-2.5,2.5-4.1c0.3-1.6,0.5-4.6,0.5-9V78.7
		c0-4.2-0.1-7-0.4-8.2c-0.2-1.2-0.7-2.1-1.5-2.5c-0.8-0.5-2.5-0.7-5.1-0.7h-1.4v-1.8h15.7L597.5,109.4z"/>
	<path d="M664.7,97.3H643c-0.1,1.5-0.2,2.7-0.2,3.4c0,5.6,0.9,9.9,2.6,12.7c1.7,2.8,4.3,4.2,7.7,4.2c4.6,0,7.9-2.1,9.8-6.4h1.8
		c-0.8,2.7-2.4,4.7-4.8,6.2c-2.4,1.5-5,2.3-7.9,2.3c-2.6,0-5.1-0.7-7.5-2.1c-2.3-1.4-4.3-3.3-5.8-5.8c-1.5-2.5-2.2-5.5-2.2-9.1
		c0-5.1,1.4-9.3,4.3-12.6c2.9-3.4,6.5-5,10.8-5c4.1,0,7.2,1.3,9.5,3.8C663.4,91.6,664.5,94.4,664.7,97.3z M658,95.8
		c0.1-0.6,0.1-1.1,0.1-1.6c0-2.3-0.7-4.1-2-5.3c-1.3-1.3-2.9-1.9-4.8-1.9c-4.6,0-7.4,2.9-8.2,8.8H658z"/>
	<path d="M696.8,89.9V77.4c0-3.4,0-5.6-0.1-6.5c-0.1-0.9-0.5-1.6-1.1-2c-0.6-0.5-1.8-0.7-3.4-0.7h-0.8v-1.8
		c3.1-0.1,6.4-0.6,10.1-1.6h0.8v43.1c0,3.7,0.1,6,0.2,6.8c0.1,0.8,0.5,1.4,1.2,1.8c0.7,0.4,1.9,0.6,3.7,0.6v1.8
		c-3.7,0.1-6.9,0.4-9.8,1c-0.3-1.2-0.5-3.2-0.5-5.8c-1.9,1.9-3.8,3.4-5.8,4.3c-2,1-4,1.4-6.2,1.4c-4,0-7.5-1.7-10.4-5
		c-2.9-3.3-4.4-7.4-4.4-12.1c0-5.2,1.5-9.4,4.5-12.7c3-3.2,6.5-4.8,10.7-4.8c2.1,0,4.1,0.4,6,1.2C693.4,87.2,695.2,88.3,696.8,89.9z
		 M696.8,92.2c-1.7-1.5-3.4-2.6-5-3.3s-3.4-1.1-5.1-1.1c-2.9,0-5.2,1.1-7.2,3.4s-2.9,6-2.9,11.1c0,5.2,1,9.1,2.9,11.5
		c2,2.5,4.4,3.7,7.3,3.7c1.9,0,3.7-0.5,5.4-1.4c1.6-0.9,3.2-2.3,4.6-4.2V92.2z"/>
	<path d="M720.7,85.2v22.3c0,3.4,0.1,5.6,0.2,6.5c0.1,0.9,0.5,1.6,1.1,2c0.6,0.5,1.8,0.7,3.4,0.7h0.8v1.8h-16.8v-1.8h1.3
		c1.8,0,3-0.3,3.5-0.8c0.5-0.5,0.9-1.2,1-1.9s0.1-2.9,0.1-6.5v-9.7c0-3.8-0.2-6.1-0.5-6.9c-0.3-0.8-0.8-1.4-1.4-1.6
		c-0.6-0.2-1.6-0.3-3-0.3h-1v-1.8c4.5-0.5,8-1.2,10.5-2.1H720.7z M713.4,68.8c0-1.1,0.4-2.1,1.2-2.9c0.8-0.8,1.7-1.2,2.8-1.2
		s2,0.4,2.8,1.2c0.8,0.8,1.1,1.8,1.1,2.9c0,1.1-0.4,2.1-1.1,2.9c-0.8,0.8-1.7,1.2-2.8,1.2s-2-0.4-2.8-1.2
		C713.8,71,713.4,70,713.4,68.8z"/>
	<path d="M761.9,112.7h1.4c-0.2,4.5-2.4,6.7-6.4,6.7c-1.7,0-3.1-0.5-4.1-1.4c-1-0.9-1.7-2.3-2-4.2c-2.5,1.9-4.8,3.2-6.9,4.2
		c-2.1,0.9-4,1.4-5.6,1.4c-2.1,0-3.9-0.6-5.4-1.9c-1.5-1.3-2.3-2.9-2.3-5c0-2.7,1.3-5,3.8-7c2.5-2,6.1-4,10.5-5.9l5.9-2.5v-1.6
		c0-2.2-0.1-3.8-0.4-4.8c-0.3-1-1-1.9-2.2-2.7s-2.7-1.2-4.6-1.2c-3.8,0-5.9,1.3-6.3,3.9c-0.4,2.7-1.5,4-3.2,4
		c-1.5,0-2.3-0.8-2.3-2.3c0-1.5,1-3.1,3.1-4.8s5.2-2.6,9.6-2.6c3.2,0,5.7,0.5,7.5,1.6c1.8,1,2.9,2.2,3.5,3.6
		c0.6,1.3,0.9,3.4,0.9,6.1v13c0,3,0.2,5,0.5,5.8c0.3,0.9,1,1.3,2,1.3C760.5,116.5,761.5,115.2,761.9,112.7z M750.9,99l-4.1,1.7
		c-6.5,2.7-9.8,6.2-9.8,10.3c0,1.6,0.4,3,1.3,4c0.8,1,1.9,1.5,3.3,1.5c1.2,0,2.6-0.4,4.1-1.2c1.6-0.8,3.3-2,5.3-3.6V99z"/>
</g>
<path fill="#FFFFFF" d="M613,197.7h215v51.5H613V197.7z"/>
<g>
	<path fill="#313030" d="M294.7,176l0.4,0.9c-1.4,1.1-2.9,1.6-4.4,1.6c-1.5,0-2.7-0.5-3.4-1.4c-0.8-0.9-1.1-2.4-1.1-4.4l0-1.6
		c0-1.8-0.2-3.1-0.5-3.8s-0.7-1.3-1.3-1.5c-0.6-0.3-1.5-0.4-2.7-0.4h-1l-2.3,7.7c-0.4,1.3-0.6,2-0.6,2.3c0,0.7,0.3,1.2,0.9,1.5
		c0.6,0.3,1.2,0.4,1.9,0.4h0.5l-0.3,0.9H270l0.3-0.9h0.4c0.8,0,1.5-0.1,2.1-0.4c0.6-0.3,0.9-0.6,1.1-1c0.2-0.4,0.5-1.2,0.9-2.5
		l5.1-16.9c0.4-1.3,0.6-2.1,0.6-2.5c0-0.5-0.2-0.8-0.6-1c-0.4-0.2-1.2-0.4-2.3-0.4l0.3-0.9h6.9c1.9,0,3.4,0,4.3,0.1s1.9,0.4,2.9,1
		c1,0.5,1.8,1.2,2.3,2.1c0.5,0.9,0.8,1.9,0.8,2.9c0,2-0.8,3.7-2.5,5.1s-4.3,2.1-7.9,2.2c1.9,0.7,3.2,1.6,4,2.8
		c0.7,1.2,1.2,2.9,1.3,5c0.1,1.6,0.2,2.7,0.5,3.3c0.3,0.6,0.8,0.8,1.6,0.8C292.8,177.1,293.7,176.7,294.7,176z M281,164.6h0.8
		c3.3,0,5.8-0.6,7.5-1.9c1.7-1.3,2.5-3.1,2.5-5.4c0-1.6-0.5-2.8-1.5-3.6s-2.5-1.2-4.5-1.2c-0.3,0-0.7,0-1,0L281,164.6z"/>
	<path fill="#313030" d="M309.4,173.2h0.9c-1.7,3.7-3.8,5.5-6.4,5.5c-1.1,0-1.9-0.4-2.6-1.1s-1-1.8-1-3c0-1.6,0.4-3.4,1.3-5.5
		c0.9-2,2.1-3.8,3.7-5.3c1.6-1.5,3-2.2,4.2-2.2c0.7,0,1.3,0.2,1.7,0.7s0.6,1,0.6,1.7c0,1.4-0.7,2.8-2.1,4.1
		c-1.4,1.3-3.5,2.5-6.3,3.7c-0.4,1.1-0.5,2.2-0.5,3.2c0,0.8,0.2,1.5,0.5,1.9c0.3,0.4,0.8,0.6,1.4,0.6
		C306.5,177.6,308.1,176.1,309.4,173.2z M303.6,170.9c1.7-0.8,3.2-1.8,4.5-3.1c1.3-1.3,2-2.5,2-3.6c0-0.5-0.1-0.9-0.3-1.1
		c-0.2-0.2-0.5-0.4-0.9-0.4c-0.8,0-1.7,0.8-2.8,2.3C305.1,166.5,304.3,168.4,303.6,170.9z"/>
	<path fill="#313030" d="M325.4,173.9c0,1.2-0.5,2.3-1.4,3.3c-0.9,1-2.3,1.5-4.1,1.5c-1.3,0-2.3-0.3-3-0.9s-1-1.2-1-1.9
		c0-0.4,0.1-0.7,0.3-0.9c0.2-0.3,0.5-0.4,0.8-0.4c0.7,0,1.1,0.4,1.1,1.1c0,0.2,0,0.4-0.1,0.7c-0.1,0.1-0.1,0.3-0.1,0.3
		c0,0.3,0.2,0.6,0.6,0.8c0.4,0.2,0.9,0.3,1.4,0.3c0.9,0,1.7-0.3,2.4-0.8c0.7-0.6,1.1-1.3,1.1-2.3c0-0.8-0.5-2.2-1.5-4
		c-1.2-2.1-1.8-3.7-1.8-4.6c0-1.3,0.5-2.3,1.5-3.2c1-0.9,2.1-1.3,3.4-1.3c0.9,0,1.7,0.2,2.4,0.7c0.7,0.5,1,1,1,1.5
		c0,0.7-0.3,1-0.9,1c-0.4,0-0.7-0.4-0.9-1.2c-0.2-0.8-0.8-1.3-1.7-1.3c-0.7,0-1.4,0.2-1.9,0.6c-0.5,0.4-0.8,0.9-0.8,1.6
		c0,0.9,0.4,2.1,1.3,3.7c0.8,1.4,1.4,2.5,1.7,3.2C325.2,172.4,325.4,173.1,325.4,173.9z"/>
	<path fill="#313030" d="M340.5,173.9h0.9c-0.6,1.3-1.4,2.4-2.4,3.4c-1,1-1.9,1.5-2.8,1.5c-0.6,0-1.1-0.2-1.6-0.7
		c-0.5-0.4-0.7-1.1-0.7-1.9c0-0.7,0.4-2,1.1-4l2.2-6c0.5-1.4,0.8-2.2,0.8-2.5c0-0.3-0.1-0.5-0.2-0.6c-0.1-0.1-0.3-0.2-0.6-0.2
		c-0.5,0-1.1,0.4-1.8,1.2c-0.7,0.8-1.2,1.5-1.5,2.1h-0.9c0.7-1.4,1.5-2.5,2.5-3.4s1.8-1.2,2.6-1.2c0.6,0,1.1,0.2,1.5,0.6
		c0.4,0.4,0.6,1,0.6,1.6c0,0.7-0.3,2-1,3.8l-1.9,5.1c-0.7,1.8-1,3-1,3.5c0,0.4,0.1,0.7,0.2,0.8c0.1,0.2,0.4,0.3,0.7,0.3
		C338.1,177.4,339.2,176.2,340.5,173.9z M339.1,153c0-0.5,0.2-0.9,0.5-1.2c0.3-0.3,0.7-0.5,1.2-0.5c0.5,0,0.9,0.2,1.2,0.5
		s0.5,0.7,0.5,1.2c0,0.5-0.2,0.9-0.5,1.2s-0.7,0.5-1.2,0.5c-0.5,0-0.9-0.2-1.2-0.5S339.1,153.5,339.1,153z"/>
	<path fill="#313030" d="M360.7,174.6h1c-0.6,1.1-1.3,2-2.2,2.9c-0.9,0.8-1.7,1.2-2.5,1.2c-0.7,0-1.2-0.2-1.6-0.6s-0.5-1-0.5-1.9
		c0-0.4,0-0.7,0.1-1c-1.9,2.3-3.6,3.5-5.1,3.5c-0.9,0-1.6-0.4-2.3-1.1c-0.6-0.7-0.9-1.8-0.9-3.1c0-1.9,0.5-3.9,1.6-6.1
		c1-2.2,2.3-3.8,3.9-5c1.5-1.2,2.9-1.8,4-1.8c0.6,0,1.1,0.1,1.5,0.4c0.4,0.3,0.7,0.7,1,1.2l2.4-7.9c0.3-0.9,0.4-1.5,0.4-1.7
		c0-0.3-0.1-0.5-0.3-0.7c-0.2-0.1-0.6-0.2-1.3-0.2h-0.5l0.3-0.8c1.9,0,3.4-0.2,4.5-0.7h0.5l-6.3,20.6c-0.8,2.5-1.2,4-1.2,4.5
		c0,0.3,0.1,0.6,0.2,0.7c0.1,0.2,0.3,0.2,0.5,0.2c0.4,0,0.8-0.2,1.3-0.7S360.2,175.6,360.7,174.6z M348.9,175.5
		c0,0.7,0.1,1.3,0.4,1.7c0.3,0.4,0.6,0.6,1.1,0.6c0.9,0,1.9-0.6,3-1.8c1.1-1.2,2.2-3.2,3.2-6c1-2.8,1.4-4.6,1.4-5.3
		c0-0.5-0.2-0.9-0.5-1.3s-0.8-0.6-1.3-0.6c-0.8,0-1.7,0.5-2.7,1.5c-0.9,1-1.9,2.7-3,5.2C349.5,171.8,348.9,173.8,348.9,175.5z"/>
	<path fill="#313030" d="M376.3,173.2h0.9c-1.7,3.7-3.8,5.5-6.4,5.5c-1.1,0-1.9-0.4-2.6-1.1s-1-1.8-1-3c0-1.6,0.4-3.4,1.3-5.5
		c0.9-2,2.1-3.8,3.7-5.3c1.6-1.5,3-2.2,4.2-2.2c0.7,0,1.3,0.2,1.7,0.7s0.6,1,0.6,1.7c0,1.4-0.7,2.8-2.1,4.1
		c-1.4,1.3-3.5,2.5-6.3,3.7c-0.4,1.1-0.5,2.2-0.5,3.2c0,0.8,0.2,1.5,0.5,1.9c0.3,0.4,0.8,0.6,1.4,0.6
		C373.4,177.6,374.9,176.1,376.3,173.2z M370.5,170.9c1.7-0.8,3.2-1.8,4.5-3.1c1.3-1.3,2-2.5,2-3.6c0-0.5-0.1-0.9-0.3-1.1
		c-0.2-0.2-0.5-0.4-0.9-0.4c-0.8,0-1.7,0.8-2.8,2.3C372,166.5,371.1,168.4,370.5,170.9z"/>
	<path fill="#313030" d="M397.9,174.5h1c-0.8,1.4-1.6,2.5-2.4,3.2c-0.8,0.7-1.6,1.1-2.5,1.1c-0.6,0-1.1-0.2-1.5-0.5
		s-0.6-0.9-0.6-1.6c0-0.6,0.3-1.7,0.9-3.5l2.1-6c0.6-1.6,0.8-2.7,0.8-3.2c0-0.4-0.1-0.7-0.3-1c-0.2-0.2-0.5-0.3-0.9-0.3
		c-1,0-2.3,1.2-3.9,3.5c-1.6,2.3-3,5.4-4.1,9.1l-1,3.1h-2.4l3.4-11.1c0.6-2,0.9-3.2,0.9-3.5c0-0.2,0-0.4-0.1-0.5
		c-0.1-0.1-0.2-0.2-0.4-0.2c-0.8,0-1.7,1-2.7,2.9h-0.9c1.6-3,3.2-4.4,4.6-4.4c0.5,0,0.9,0.2,1.1,0.5c0.3,0.3,0.4,0.8,0.4,1.4
		c0,1.1-0.4,2.9-1.3,5.2c2.4-4.7,4.7-7.1,6.9-7.1c0.7,0,1.3,0.2,1.9,0.7s0.8,1.2,0.8,2.1c0,0.6-0.3,1.7-0.8,3.3L395,174
		c-0.6,1.7-0.8,2.6-0.8,2.8c0,0.2,0.1,0.4,0.2,0.6c0.1,0.1,0.3,0.2,0.5,0.2c0.4,0,0.9-0.3,1.4-0.8
		C396.8,176.3,397.3,175.5,397.9,174.5z"/>
	<path fill="#313030" d="M414.5,162.2l-0.3,0.9h-2.9l-2.6,8.5c-0.9,2.8-1.3,4.4-1.3,4.9c0,0.3,0.1,0.6,0.2,0.7
		c0.1,0.2,0.3,0.2,0.6,0.2c0.5,0,1.1-0.4,1.8-1.3c0.8-0.9,1.4-2,2-3.3h0.9c-0.8,1.9-1.7,3.4-2.7,4.4c-1,1-2,1.5-2.8,1.5
		c-0.7,0-1.2-0.2-1.6-0.7c-0.4-0.5-0.6-1.1-0.6-1.8c0-0.6,0.4-2.2,1.2-4.9l2.5-8.3h-2.7l0.3-0.9h2.7l1.8-5.9h2.3l-1.8,5.9H414.5z"/>
	<path fill="#313030" d="M426.9,173.9c0,1.2-0.5,2.3-1.4,3.3c-0.9,1-2.3,1.5-4.1,1.5c-1.3,0-2.3-0.3-3-0.9s-1-1.2-1-1.9
		c0-0.4,0.1-0.7,0.3-0.9s0.5-0.4,0.8-0.4c0.7,0,1.1,0.4,1.1,1.1c0,0.2,0,0.4-0.1,0.7c-0.1,0.1-0.1,0.3-0.1,0.3
		c0,0.3,0.2,0.6,0.6,0.8c0.4,0.2,0.9,0.3,1.4,0.3c0.9,0,1.7-0.3,2.4-0.8c0.7-0.6,1.1-1.3,1.1-2.3c0-0.8-0.5-2.2-1.5-4
		c-1.2-2.1-1.8-3.7-1.8-4.6c0-1.3,0.5-2.3,1.5-3.2s2.1-1.3,3.4-1.3c0.9,0,1.7,0.2,2.4,0.7c0.7,0.5,1,1,1,1.5c0,0.7-0.3,1-0.9,1
		c-0.4,0-0.7-0.4-0.9-1.2c-0.2-0.8-0.8-1.3-1.7-1.3c-0.7,0-1.4,0.2-1.9,0.6s-0.8,0.9-0.8,1.6c0,0.9,0.4,2.1,1.3,3.7
		c0.8,1.4,1.4,2.5,1.7,3.2C426.7,172.4,426.9,173.1,426.9,173.9z"/>
	<path fill="#313030" d="M437.4,162.9v-0.8c2.2-0.3,3.7-1,4.7-2.2c1-1.1,1.4-2.1,1.4-2.9c0-0.6-0.3-0.9-0.8-0.9c-0.1,0-0.2,0-0.3,0
		c-0.3,0-0.4,0-0.5,0c-0.4,0-0.9-0.2-1.3-0.5s-0.6-0.8-0.6-1.4c0-0.7,0.2-1.2,0.6-1.6c0.4-0.4,0.9-0.6,1.5-0.6c0.8,0,1.5,0.3,1.9,1
		c0.5,0.7,0.7,1.5,0.7,2.6c0,1.7-0.7,3.3-2,4.7C441.6,161.9,439.7,162.7,437.4,162.9z"/>
	<path fill="#313030" d="M476.4,165.1l-1.8,7.8c-0.7,2.8-1.4,5.1-2.2,7.1s-1.7,3.4-2.7,4.6c-1,1.1-2.1,2-3.4,2.5
		c-1.2,0.5-2.6,0.8-4.1,0.8c-2,0-3.6-0.5-4.6-1.4c-1-0.9-1.5-1.9-1.5-2.8c0-0.6,0.2-1.1,0.5-1.4c0.3-0.4,0.7-0.5,1.1-0.5
		s0.8,0.2,1.1,0.5c0.3,0.3,0.5,0.8,0.5,1.3c0,0.2,0,0.4,0,0.6c0,0.3-0.1,0.5-0.1,0.6c0,0.6,0.3,1.2,0.9,1.6c0.6,0.4,1.3,0.7,2.2,0.7
		c1.2,0,2.3-0.4,3.3-1.3c1-0.9,1.9-2.2,2.6-4.2s1.6-4.6,2.6-8.1c0.8-2.6,1.7-5.3,2.7-8.3h-4.8l0.3-0.9h4.9c1.8-4.8,3.4-8.1,4.8-9.9
		c-1.8,0.7-3.8,1-6.1,1c-0.8,0-1.9-0.1-3.1-0.2c-0.7-0.1-1.2-0.1-1.5-0.1c-1.7,0-2.8,0.7-3.4,2h-0.9c0.3-1.4,1-2.6,2-3.7
		c1-1.1,2.3-1.7,3.7-1.7c1,0,2.2,0.4,3.6,1.3c1.3,0.8,2.4,1.2,3.2,1.2c1.2,0,2.3-0.5,3.4-1.5c0.6-0.6,1.1-0.9,1.5-0.9
		c0.5,0,0.7,0.2,0.7,0.7c0,0.4-0.4,1-1.3,1.8c-0.6,0.5-1.1,1-1.3,1.5c-0.3,0.5-0.6,1.4-1,2.8c-0.4,1.4-0.9,3.4-1.5,5.9h3.3l-0.3,0.9
		H476.4z"/>
	<path fill="#313030" d="M483.4,173.1c0-1.6,0.4-3.3,1.1-5.1c0.7-1.8,1.8-3.3,3.1-4.5c1.4-1.1,2.7-1.7,3.9-1.7
		c1.2,0,2.1,0.5,2.9,1.5c0.7,1,1.1,2.3,1.1,4c0,2-0.4,4-1.3,5.8c-0.8,1.8-1.9,3.2-3.1,4.2c-1.3,1-2.5,1.5-3.7,1.5
		c-1.1,0-2-0.4-2.8-1.2C483.8,176.6,483.4,175.1,483.4,173.1z M485.5,175.3c0,0.7,0.2,1.3,0.5,1.8c0.4,0.5,0.9,0.7,1.5,0.7
		c1.7,0,3.2-1.7,4.3-5c1.1-3.3,1.7-5.8,1.7-7.6c0-0.9-0.2-1.6-0.5-2c-0.3-0.4-0.9-0.7-1.6-0.7c-1.6,0-3,1.5-4.2,4.6
		C486.1,170.3,485.5,173,485.5,175.3z"/>
	<path fill="#313030" d="M516.3,174.2h0.8c-1.1,3-2.6,4.6-4.5,4.6c-0.6,0-1.1-0.2-1.4-0.5s-0.5-0.9-0.5-1.6c0-1,0.4-2.6,1.1-4.7
		c-2.3,4.6-4.5,6.9-6.8,6.9c-0.8,0-1.5-0.3-1.9-0.8c-0.5-0.5-0.7-1.1-0.7-1.9c0-0.7,0.3-2,0.9-3.7l2.4-7c0.4-1,0.5-1.7,0.5-1.9
		c0-0.3-0.2-0.5-0.5-0.5c-0.8,0-1.7,1.1-2.7,3.3h-0.9c0.5-1.4,1.2-2.5,2.1-3.4s1.7-1.3,2.5-1.3c0.5,0,0.9,0.2,1.3,0.5
		s0.5,0.8,0.5,1.4c0,0.5-0.2,1.4-0.7,2.7l-2.5,7.2c-0.5,1.4-0.7,2.3-0.7,2.8c0,0.4,0.1,0.7,0.3,0.9c0.2,0.2,0.5,0.3,0.8,0.3
		c1.1,0,2.5-1.2,4.1-3.7c1.6-2.4,3.1-6.1,4.5-10.9l0.3-1.1h2.3l-3.4,11.2c-0.5,1.8-0.8,2.9-0.8,3.3c0,0.3,0.1,0.6,0.2,0.7
		c0.1,0.2,0.3,0.2,0.6,0.2C514.5,177.4,515.4,176.3,516.3,174.2z"/>
	<path fill="#313030" d="M523.6,166.9h-0.9c0.5-1.5,1.2-2.7,2.1-3.7c0.8-1,1.6-1.5,2.5-1.5c0.6,0,1,0.2,1.3,0.7s0.4,1.1,0.4,2
		c0,1.1-0.3,2.7-0.9,4.8c0.1-0.1,0.3-0.6,0.6-1.4c1-2.2,1.8-3.7,2.5-4.7c0.7-1,1.5-1.4,2.2-1.4c0.5,0,0.8,0.1,1.1,0.4s0.4,0.6,0.4,1
		c0,0.4-0.1,0.7-0.3,1s-0.5,0.4-0.8,0.4c-0.4,0-0.7-0.2-1.1-0.6c-0.1-0.2-0.3-0.3-0.4-0.3c-0.7,0-1.7,1.6-3,4.7
		c-1.4,3.1-2.4,6.1-3.3,8.8l-0.4,1.4h-2.3l3.1-10.4c0.6-2,0.9-3.3,0.9-4c0-0.4,0-0.7-0.1-0.8c-0.1-0.2-0.2-0.3-0.4-0.3
		c-0.4,0-1,0.5-1.6,1.4C524.3,165.3,523.9,166.2,523.6,166.9z"/>
	<path fill="#313030" d="M554.7,174.5h1c-0.8,1.4-1.6,2.5-2.4,3.2c-0.8,0.7-1.6,1.1-2.5,1.1c-0.6,0-1.1-0.2-1.5-0.5
		c-0.4-0.4-0.6-0.9-0.6-1.6c0-0.6,0.3-1.7,0.9-3.5l2.1-6c0.6-1.6,0.8-2.7,0.8-3.2c0-0.4-0.1-0.7-0.3-1c-0.2-0.2-0.5-0.3-0.9-0.3
		c-1,0-2.3,1.2-3.9,3.5c-1.6,2.3-3,5.4-4.1,9.1l-1,3.1H540l3.4-11.1c0.6-2,0.9-3.2,0.9-3.5c0-0.2,0-0.4-0.1-0.5
		c-0.1-0.1-0.2-0.2-0.4-0.2c-0.8,0-1.7,1-2.7,2.9h-0.9c1.6-3,3.2-4.4,4.6-4.4c0.5,0,0.9,0.2,1.1,0.5s0.4,0.8,0.4,1.4
		c0,1.1-0.4,2.9-1.3,5.2c2.4-4.7,4.7-7.1,6.9-7.1c0.7,0,1.3,0.2,1.9,0.7s0.8,1.2,0.8,2.1c0,0.6-0.3,1.7-0.8,3.3l-2.1,6.2
		c-0.6,1.7-0.8,2.6-0.8,2.8c0,0.2,0.1,0.4,0.2,0.6c0.1,0.1,0.3,0.2,0.5,0.2c0.4,0,0.9-0.3,1.4-0.8
		C553.6,176.3,554.1,175.5,554.7,174.5z"/>
	<path fill="#313030" d="M574,161.9h2.3l-3.5,11.5c-0.5,1.7-0.8,2.7-0.8,3c0,0.3,0.1,0.5,0.2,0.6s0.3,0.2,0.5,0.2
		c0.9,0,1.9-1,3.1-3.1h0.8c-0.5,1.2-1.2,2.2-2.2,3.2c-0.9,1-1.8,1.4-2.6,1.4c-0.6,0-1.1-0.2-1.4-0.7c-0.3-0.5-0.5-1-0.5-1.7
		c0-0.5,0.1-1.2,0.4-2.1c-0.6,1-1.4,2-2.6,3c-1.1,1-2.2,1.5-3.1,1.5c-0.9,0-1.7-0.4-2.4-1.2c-0.7-0.8-1-1.8-1-3.1
		c0-1.8,0.5-3.7,1.5-5.7c1-2,2.3-3.7,4-5.1c1.6-1.4,3-2,4.2-2c0.7,0,1.2,0.2,1.6,0.5s0.7,0.8,0.8,1.5L574,161.9z M563.7,175
		c0,0.9,0.1,1.5,0.4,1.9s0.7,0.7,1.2,0.7c0.9,0,1.9-0.6,3.1-1.9c1.2-1.3,2.2-3.2,3.1-5.8c0.9-2.6,1.3-4.4,1.3-5.3
		c0-0.5-0.1-1-0.4-1.4s-0.7-0.6-1.2-0.6c-1.6,0-3.2,1.6-4.9,4.7C564.6,170.5,563.7,173.1,563.7,175z"/>
	<path fill="#313030" d="M589.4,173.5h0.9c-1.3,3.5-3,5.2-5.1,5.2c-0.7,0-1.3-0.2-1.7-0.7c-0.4-0.5-0.6-1.1-0.6-1.8
		c0-0.7,0.4-2.4,1.3-5.2l4.6-15.1c0.4-1.3,0.6-2,0.6-2.2c0-0.3-0.1-0.5-0.3-0.7c-0.2-0.1-0.6-0.2-1.3-0.2h-0.8l0.3-0.8
		c2.2,0,3.7-0.3,4.7-0.7h0.5l-6.3,20.7c-0.1,0.3-0.3,0.9-0.6,1.8c-0.4,1.1-0.6,2-0.6,2.6c0,0.4,0.1,0.7,0.2,0.9
		c0.2,0.2,0.4,0.3,0.7,0.3c0.4,0,1-0.3,1.7-0.9C588.2,176,588.8,175,589.4,173.5z"/>
</g>
<g display="none">
	<defs>
		<rect id="SVGID_1_" x="30.5" y="38.8" width="1398.6" height="203.4"/>
	</defs>
	<clipPath id="SVGID_2_" display="inline">
		<use xlink:href="#SVGID_1_"  overflow="visible"/>
	</clipPath>
	<line display="inline" clip-path="url(#SVGID_2_)" fill="none" stroke="#231F20" x1="818.7" y1="235.5" x2="1429" y2="235.5"/>
</g>
<g>
	<defs>
		<rect id="SVGID_3_" x="30.5" y="38.8" width="1398.6" height="203.4"/>
	</defs>
	<clipPath id="SVGID_4_">
		<use xlink:href="#SVGID_3_"  overflow="visible"/>
	</clipPath>
	<polyline clip-path="url(#SVGID_4_)" fill="none" stroke="#231F20" stroke-width="2" points="613.8,231.1 619.8,231.1 619.8,223.7 
		629.8,223.7 629.8,231.1 643.1,231.1 643.1,234.4 653.1,234.4 653.1,236.4 654.5,236.4 654.5,221.1 663.8,221.1 664.5,201 
		667.1,201 667.1,197 672.5,197 672.5,201 676.5,201 676.5,218.4 679.8,218.4 679.8,237.7 683.1,237.7 683.1,241.1 686.5,241.1 
		686.5,234.4 689.8,233.7 689.8,205.7 693.8,205.7 693.2,181 695.8,181 695.2,167 705.7,166.8 706,184.4 708.9,184.4 708.7,206 
		712.6,206 711.8,238.8 714.3,238.8 713.7,234.5 719.8,234.4 720.9,236.9 723.2,236.9 723.3,232.4 726.2,232.4 726.2,227.9 
		733.2,227.9 733.7,231.9 735.6,231.1 736.4,233.5 738,233.5 736.6,207 739.8,207 739.8,203.8 749.9,204.4 750.8,208.1 752.7,207.9 
		752.4,218.8 758.3,219.3 758.3,223.3 764.1,222.8 763.9,225.2 772.1,224.9 772.4,205.7 796.9,206 797.7,222 801.5,221.1 
		801.5,217.2 809.9,217.2 809.9,219.9 812.1,221.1 812.2,227.9 817.2,222.3 817,201 826.5,200.9 826.5,231.1 	"/>
</g>
<line fill="none" stroke="#231F20" stroke-width="2" x1="697.5" y1="167.1" x2="697.5" y2="152.5"/>
<line fill="none" stroke="#231F20" stroke-width="2" x1="740.9" y1="202.9" x2="740.9" y2="188.3"/>
<line fill="none" stroke="#231F20" stroke-width="2" x1="702" y1="167.1" x2="702" y2="152.5"/>
<line fill="none" stroke="#231F20" stroke-width="2" x1="745.3" y1="202.9" x2="745.3" y2="188.3"/>
<image display="none" overflow="visible" width="204" height="224" xlink:href="Screen Shot 2015-05-31 at 1.46.39 PM.png"  transform="matrix(0.5 0 0 0.5 33.9948 172.336)">
</image>
</svg>
