<?xml version="1.0" encoding="UTF-8" standalone="no"?>
<!-- Generator: Adobe Illustrator 18.0.0, SVG Export Plug-In . SVG Version: 6.00 Build 0)  -->

<svg
   xmlns:dc="http://purl.org/dc/elements/1.1/"
   xmlns:cc="http://creativecommons.org/ns#"
   xmlns:rdf="http://www.w3.org/1999/02/22-rdf-syntax-ns#"
   xmlns:svg="http://www.w3.org/2000/svg"
   xmlns="http://www.w3.org/2000/svg"
   xmlns:xlink="http://www.w3.org/1999/xlink"
   xmlns:sodipodi="http://sodipodi.sourceforge.net/DTD/sodipodi-0.dtd"
   xmlns:inkscape="http://www.inkscape.org/namespaces/inkscape"
   version="1.1"
   id="Layer_1"
   x="0px"
   y="0px"
   viewBox="0 0 800 220"
   enable-background="new 0 0 1003.1 270"
   xml:space="preserve"
   sodipodi:docname="header_sm.svg"
   width="400"
   height="110"
   inkscape:version="0.92.3 (2405546, 2018-03-11)"><metadata
   id="metadata245"><rdf:RDF><cc:Work
       rdf:about=""><dc:format>image/svg+xml</dc:format><dc:type
         rdf:resource="http://purl.org/dc/dcmitype/StillImage" /><dc:title></dc:title></cc:Work></rdf:RDF></metadata><defs
   id="defs243" /><sodipodi:namedview
   pagecolor="#ffffff"
   bordercolor="#666666"
   borderopacity="1"
   objecttolerance="10"
   gridtolerance="10"
   guidetolerance="10"
   inkscape:pageopacity="0"
   inkscape:pageshadow="2"
   inkscape:window-width="1920"
   inkscape:window-height="971"
   id="namedview241"
   showgrid="false"
   scale-x="2"
   inkscape:zoom="1.7625362"
   inkscape:cx="275.54833"
   inkscape:cy="-74.625635"
   inkscape:window-x="0"
   inkscape:window-y="31"
   inkscape:window-maximized="1"
   inkscape:current-layer="Layer_1" />
<g
   id="g170"
   transform="translate(-44.254411,-40.856794)">
	<path
   d="m 151,119.8 h -1.7 L 133.6,76 119.9,119.8 h -1.8 L 105.7,78.5 c -1.1,-3.8 -1.9,-6.3 -2.4,-7.5 -0.5,-1.2 -1.1,-2.2 -1.9,-2.7 -0.8,-0.6 -2.1,-0.9 -4,-1 v -1.8 h 19.3 v 1.8 c -2.3,0.2 -3.8,0.5 -4.5,1 -0.7,0.5 -1,1.3 -1,2.3 0,0.9 0.5,3.1 1.6,6.6 l 9.2,30.9 13.5,-42.6 h 2.1 l 15.1,42.6 7.9,-28.2 c 1,-3.8 1.6,-6.3 1.6,-7.5 0,-3.4 -1.8,-5.2 -5.4,-5.2 v -1.8 h 14.1 v 1.8 c -2.1,0.2 -3.6,0.9 -4.6,2.4 -1,1.4 -2.3,4.8 -3.8,10.2 z"
   id="path138"
   inkscape:connector-curvature="0" />
	<path
   d="M 195.7,97.3 H 174 c -0.1,1.5 -0.2,2.7 -0.2,3.4 0,5.6 0.9,9.9 2.6,12.7 1.7,2.8 4.3,4.2 7.7,4.2 4.6,0 7.9,-2.1 9.8,-6.4 h 1.8 c -0.8,2.7 -2.4,4.7 -4.8,6.2 -2.4,1.5 -5,2.3 -7.9,2.3 -2.6,0 -5.1,-0.7 -7.5,-2.1 -2.4,-1.4 -4.3,-3.3 -5.8,-5.8 -1.5,-2.5 -2.2,-5.5 -2.2,-9.1 0,-5.1 1.4,-9.3 4.3,-12.6 2.9,-3.4 6.5,-5 10.8,-5 4.1,0 7.2,1.3 9.5,3.8 2.3,2.7 3.5,5.5 3.6,8.4 z M 189,95.8 c 0.1,-0.6 0.1,-1.1 0.1,-1.6 0,-2.3 -0.7,-4.1 -2,-5.3 -1.3,-1.3 -2.9,-1.9 -4.8,-1.9 -4.6,0 -7.4,2.9 -8.2,8.8 z"
   id="path140"
   inkscape:connector-curvature="0" />
	<path
   d="m 239.5,88.3 h -9.4 v 19.4 c 0,3 0.1,5 0.4,6 0.3,1 0.8,1.9 1.6,2.5 0.8,0.6 1.7,0.9 2.6,0.9 1.8,0 3.4,-1.1 4.7,-3.2 l 1.2,0.7 c -0.8,1.7 -1.9,3 -3.5,3.9 -1.5,0.9 -3.1,1.3 -4.7,1.3 -1.8,0 -3.4,-0.6 -4.8,-1.7 -1.4,-1.1 -2.2,-2.4 -2.6,-3.9 -0.3,-1.5 -0.5,-4.1 -0.5,-7.8 V 88.3 H 220 v -1.8 c 2.1,-0.1 3.9,-1 5.6,-2.7 1.6,-1.7 2.7,-4.2 3.2,-7.4 h 1.2 v 10.1 h 9.4 v 1.8 z"
   id="path142"
   inkscape:connector-curvature="0" />
	<path
   d="m 253.5,91.8 c 1.5,-2.2 3.2,-3.8 5.1,-4.9 1.9,-1.1 4,-1.6 6.2,-1.6 2.6,0 4.7,0.5 6.4,1.6 1.7,1.1 2.8,2.4 3.3,4.1 0.5,1.6 0.8,4.2 0.8,7.8 v 8.8 c 0,3.8 0.1,6 0.2,6.8 0.1,0.8 0.6,1.4 1.2,1.8 0.7,0.4 2,0.6 3.8,0.6 v 1.8 h -16.1 v -1.8 h 0.7 c 1.8,0 3,-0.3 3.6,-0.8 0.5,-0.5 0.9,-1.2 1,-1.9 0.1,-0.7 0.1,-2.9 0.1,-6.4 v -9.6 c 0,-2.7 -0.2,-4.6 -0.5,-5.9 -0.3,-1.3 -1,-2.3 -2.1,-3.2 -1.1,-0.8 -2.5,-1.3 -4.2,-1.3 -2,0 -3.7,0.6 -5.3,1.8 -1.6,1.2 -3,3 -4.1,5.3 v 12.8 c 0,3.6 0.1,5.8 0.2,6.7 0.1,0.8 0.5,1.5 1.2,1.9 0.7,0.4 1.9,0.6 3.6,0.6 v 1.8 h -15.8 v -1.8 h 0.8 c 1.8,0 3,-0.3 3.6,-0.8 0.5,-0.5 0.9,-1.2 0.9,-1.9 0,-0.7 0.1,-2.9 0.1,-6.5 v -32 c 0,-3.2 -0.3,-5.3 -0.9,-6.1 -0.6,-0.9 -2,-1.3 -4.3,-1.3 v -1.8 c 3.9,0 7.2,-0.5 9.8,-1.6 h 0.8 v 27 z"
   id="path144"
   inkscape:connector-curvature="0" />
	<path
   d="m 313.2,97.3 h -21.7 c -0.1,1.5 -0.2,2.7 -0.2,3.4 0,5.6 0.9,9.9 2.6,12.7 1.7,2.8 4.3,4.2 7.7,4.2 4.6,0 7.9,-2.1 9.8,-6.4 h 1.8 c -0.8,2.7 -2.4,4.7 -4.8,6.2 -2.4,1.5 -5,2.3 -7.9,2.3 -2.6,0 -5.1,-0.7 -7.5,-2.1 -2.4,-1.4 -4.3,-3.3 -5.8,-5.8 -1.5,-2.5 -2.2,-5.5 -2.2,-9.1 0,-5.1 1.4,-9.3 4.3,-12.6 2.9,-3.4 6.5,-5 10.8,-5 4.1,0 7.2,1.3 9.5,3.8 2.3,2.7 3.5,5.5 3.6,8.4 z m -6.6,-1.5 c 0.1,-0.6 0.1,-1.1 0.1,-1.6 0,-2.3 -0.7,-4.1 -2,-5.3 -1.3,-1.3 -2.9,-1.9 -4.8,-1.9 -4.6,0 -7.4,2.9 -8.2,8.8 z"
   id="path146"
   inkscape:connector-curvature="0" />
	<path
   d="m 353.5,93.6 v 11.2 c 0,4.2 0.1,6.9 0.3,8.2 0.2,1.3 0.7,2.3 1.5,2.9 0.8,0.6 2.4,0.9 4.7,0.9 h 1.7 v 1.8 h -23.6 v -1.8 h 1.4 c 2.2,0 3.7,-0.3 4.6,-0.9 0.8,-0.6 1.4,-1.5 1.6,-2.7 0.2,-1.2 0.3,-4 0.3,-8.5 v -26 c 0,-4.2 -0.1,-7 -0.3,-8.2 -0.2,-1.2 -0.7,-2.1 -1.5,-2.5 -0.8,-0.5 -2.5,-0.7 -5.1,-0.7 h -1 v -1.8 l 6.5,-0.2 c 5.2,-0.2 9.2,-0.3 12.1,-0.3 5.3,0 9.4,0.4 12.3,1.3 2.9,0.9 5.2,2.4 7.1,4.6 1.8,2.2 2.8,5 2.8,8.3 0,2.9 -0.6,5.5 -1.9,7.7 -1.3,2.2 -3.1,3.9 -5.4,5 -2.3,1.1 -6.5,1.7 -12.4,1.7 z m 0,-2 h 3.7 c 3,0 5.4,-0.3 7.2,-0.9 1.8,-0.6 3.3,-1.9 4.6,-3.9 1.3,-2 1.8,-4.4 1.8,-7.2 0,-4.4 -1,-7.6 -3.1,-9.6 -2.1,-2 -5.5,-3.1 -10.2,-3.1 -1.7,0 -3,0.1 -4,0.2 z"
   id="path148"
   inkscape:connector-curvature="0" />
	<path
   d="m 406.8,97.3 h -21.7 c -0.1,1.5 -0.2,2.7 -0.2,3.4 0,5.6 0.9,9.9 2.6,12.7 1.7,2.8 4.3,4.2 7.7,4.2 4.6,0 7.9,-2.1 9.8,-6.4 h 1.8 c -0.8,2.7 -2.4,4.7 -4.8,6.2 -2.4,1.5 -5,2.3 -7.9,2.3 -2.6,0 -5.1,-0.7 -7.5,-2.1 -2.4,-1.4 -4.3,-3.3 -5.8,-5.8 -1.5,-2.5 -2.2,-5.5 -2.2,-9.1 0,-5.1 1.4,-9.3 4.3,-12.6 2.9,-3.4 6.5,-5 10.8,-5 4.1,0 7.2,1.3 9.5,3.8 2.3,2.7 3.5,5.5 3.6,8.4 z m -6.6,-1.5 c 0.1,-0.6 0.1,-1.1 0.1,-1.6 0,-2.3 -0.7,-4.1 -2,-5.3 -1.3,-1.3 -2.9,-1.9 -4.8,-1.9 -4.6,0 -7.4,2.9 -8.2,8.8 z"
   id="path150"
   inkscape:connector-curvature="0" />
	<path
   d="m 412.7,102.5 c 0,-4.9 1.6,-9 4.8,-12.3 3.2,-3.3 7.1,-5 11.8,-5 4.7,0 8.6,1.7 11.8,5 3.2,3.3 4.8,7.4 4.8,12.3 0,5.4 -1.6,9.6 -4.9,12.7 -3.2,3.1 -7.2,4.6 -11.7,4.6 -4.6,0 -8.5,-1.6 -11.7,-4.7 -3.3,-3.1 -4.9,-7.3 -4.9,-12.6 z m 6.3,0.2 c 0,5.7 0.9,9.7 2.7,12 1.8,2.3 4.3,3.4 7.6,3.4 3.3,0 5.9,-1.1 7.6,-3.4 1.8,-2.3 2.6,-6.3 2.6,-12 0,-5.6 -0.9,-9.7 -2.6,-12.1 -1.7,-2.4 -4.3,-3.6 -7.6,-3.6 -3.3,0 -5.9,1.2 -7.6,3.6 -1.8,2.4 -2.7,6.4 -2.7,12.1 z"
   id="path152"
   inkscape:connector-curvature="0" />
	<path
   d="m 458.3,85.2 h 1 c 0.4,1.5 0.6,3.2 0.6,5.3 1.6,-1.8 3.4,-3.1 5.2,-4 1.9,-0.9 3.8,-1.3 5.9,-1.3 4.3,0 7.9,1.6 10.8,4.7 2.9,3.1 4.3,7.2 4.3,12.3 0,5 -1.4,9.2 -4.3,12.6 -2.9,3.4 -6.7,5 -11.3,5 -1.9,0 -3.8,-0.4 -5.5,-1.2 -1.8,-0.8 -3.4,-2 -5,-3.5 v 12.2 c 0,3.7 0.1,6 0.2,6.8 0.1,0.8 0.5,1.4 1.2,1.8 0.7,0.4 1.9,0.6 3.7,0.6 v 1.8 h -16.3 v -1.8 h 1.1 c 1.8,0 3,-0.3 3.5,-0.8 0.5,-0.5 0.9,-1.2 1,-1.9 0.1,-0.7 0.1,-2.9 0.1,-6.5 V 98.2 c 0,-3.4 0,-5.6 -0.1,-6.5 -0.1,-0.9 -0.5,-1.6 -1.1,-2 -0.6,-0.5 -1.8,-0.7 -3.4,-0.7 h -1.1 v -1.8 c 2.5,-0.3 5.7,-0.9 9.5,-2 z m 1.7,27.3 c 1.4,1.7 2.8,3 4.4,3.9 1.5,0.9 3.1,1.3 4.8,1.3 2.9,0 5.4,-1.3 7.5,-3.8 2.1,-2.5 3.2,-6.6 3.2,-12.1 0,-4.8 -1,-8.4 -3.1,-10.8 -2.1,-2.4 -4.5,-3.6 -7.3,-3.6 -1.7,0 -3.4,0.5 -5,1.4 -1.6,0.9 -3.1,2.3 -4.5,4.1 z"
   id="path154"
   inkscape:connector-curvature="0" />
	<path
   d="m 501.2,64.7 v 42.8 c 0,3.4 0,5.6 0.1,6.5 0.1,0.9 0.4,1.6 1.1,2 0.6,0.5 1.8,0.7 3.4,0.7 h 0.9 v 1.8 h -16.6 v -1.8 h 1.1 c 1.5,0 2.6,-0.2 3.2,-0.6 0.6,-0.4 1,-1 1.2,-1.8 0.2,-0.8 0.2,-3 0.2,-6.7 V 75.9 c 0,-3.4 -0.3,-5.5 -0.9,-6.4 -0.6,-0.9 -2,-1.3 -4.3,-1.3 v -1.8 c 1.5,0 3.4,-0.2 5.5,-0.5 2.1,-0.4 3.5,-0.7 4.3,-1.1 h 0.8 z"
   id="path156"
   inkscape:connector-curvature="0" />
	<path
   d="m 539,97.3 h -21.7 c -0.1,1.5 -0.2,2.7 -0.2,3.4 0,5.6 0.9,9.9 2.6,12.7 1.7,2.8 4.3,4.2 7.7,4.2 4.6,0 7.9,-2.1 9.8,-6.4 h 1.8 c -0.8,2.7 -2.4,4.7 -4.8,6.2 -2.4,1.5 -5,2.3 -7.9,2.3 -2.6,0 -5.1,-0.7 -7.5,-2.1 -2.3,-1.4 -4.3,-3.3 -5.8,-5.8 -1.5,-2.5 -2.2,-5.5 -2.2,-9.1 0,-5.1 1.4,-9.3 4.3,-12.6 2.9,-3.4 6.5,-5 10.8,-5 4.1,0 7.2,1.3 9.5,3.8 2.3,2.7 3.5,5.5 3.6,8.4 z m -6.7,-1.5 c 0.1,-0.6 0.1,-1.1 0.1,-1.6 0,-2.3 -0.7,-4.1 -2,-5.3 -1.3,-1.3 -2.9,-1.9 -4.8,-1.9 -4.6,0 -7.4,2.9 -8.2,8.8 z"
   id="path158"
   inkscape:connector-curvature="0" />
	<path
   d="m 597.5,109.4 18.8,-43.9 h 15.8 v 1.8 h -1.9 c -2.5,0 -4.2,0.2 -5,0.6 -0.8,0.4 -1.3,1.2 -1.6,2.4 -0.3,1.2 -0.4,4 -0.4,8.4 v 26 c 0,4.2 0.1,6.9 0.3,8.2 0.2,1.3 0.7,2.3 1.5,2.9 0.8,0.6 2.4,0.9 4.7,0.9 h 2.3 v 1.8 h -24.6 v -1.8 h 1.8 c 2.2,0 3.7,-0.3 4.5,-0.9 0.8,-0.6 1.4,-1.5 1.6,-2.7 0.2,-1.2 0.4,-4 0.4,-8.5 V 71 l -20.4,47.6 h -1.8 L 573.1,71 v 31 c 0,4.3 0.1,7.1 0.4,8.7 0.3,1.5 1,2.9 2.4,4.1 1.3,1.2 3.2,1.8 5.5,2 v 1.8 H 563 v -1.8 c 2.2,-0.1 4,-0.8 5.4,-1.9 1.4,-1.1 2.2,-2.5 2.5,-4.1 0.3,-1.6 0.5,-4.6 0.5,-9 V 78.7 c 0,-4.2 -0.1,-7 -0.4,-8.2 -0.2,-1.2 -0.7,-2.1 -1.5,-2.5 -0.8,-0.5 -2.5,-0.7 -5.1,-0.7 H 563 v -1.8 h 15.7 z"
   id="path160"
   inkscape:connector-curvature="0" />
	<path
   d="M 664.7,97.3 H 643 c -0.1,1.5 -0.2,2.7 -0.2,3.4 0,5.6 0.9,9.9 2.6,12.7 1.7,2.8 4.3,4.2 7.7,4.2 4.6,0 7.9,-2.1 9.8,-6.4 h 1.8 c -0.8,2.7 -2.4,4.7 -4.8,6.2 -2.4,1.5 -5,2.3 -7.9,2.3 -2.6,0 -5.1,-0.7 -7.5,-2.1 -2.3,-1.4 -4.3,-3.3 -5.8,-5.8 -1.5,-2.5 -2.2,-5.5 -2.2,-9.1 0,-5.1 1.4,-9.3 4.3,-12.6 2.9,-3.4 6.5,-5 10.8,-5 4.1,0 7.2,1.3 9.5,3.8 2.3,2.7 3.4,5.5 3.6,8.4 z M 658,95.8 c 0.1,-0.6 0.1,-1.1 0.1,-1.6 0,-2.3 -0.7,-4.1 -2,-5.3 -1.3,-1.3 -2.9,-1.9 -4.8,-1.9 -4.6,0 -7.4,2.9 -8.2,8.8 z"
   id="path162"
   inkscape:connector-curvature="0" />
	<path
   d="M 696.8,89.9 V 77.4 c 0,-3.4 0,-5.6 -0.1,-6.5 -0.1,-0.9 -0.5,-1.6 -1.1,-2 -0.6,-0.5 -1.8,-0.7 -3.4,-0.7 h -0.8 v -1.8 c 3.1,-0.1 6.4,-0.6 10.1,-1.6 h 0.8 v 43.1 c 0,3.7 0.1,6 0.2,6.8 0.1,0.8 0.5,1.4 1.2,1.8 0.7,0.4 1.9,0.6 3.7,0.6 v 1.8 c -3.7,0.1 -6.9,0.4 -9.8,1 -0.3,-1.2 -0.5,-3.2 -0.5,-5.8 -1.9,1.9 -3.8,3.4 -5.8,4.3 -2,1 -4,1.4 -6.2,1.4 -4,0 -7.5,-1.7 -10.4,-5 -2.9,-3.3 -4.4,-7.4 -4.4,-12.1 0,-5.2 1.5,-9.4 4.5,-12.7 3,-3.2 6.5,-4.8 10.7,-4.8 2.1,0 4.1,0.4 6,1.2 1.9,0.8 3.7,1.9 5.3,3.5 z m 0,2.3 c -1.7,-1.5 -3.4,-2.6 -5,-3.3 -1.6,-0.7 -3.4,-1.1 -5.1,-1.1 -2.9,0 -5.2,1.1 -7.2,3.4 -2,2.3 -2.9,6 -2.9,11.1 0,5.2 1,9.1 2.9,11.5 2,2.5 4.4,3.7 7.3,3.7 1.9,0 3.7,-0.5 5.4,-1.4 1.6,-0.9 3.2,-2.3 4.6,-4.2 z"
   id="path164"
   inkscape:connector-curvature="0" />
	<path
   d="m 720.7,85.2 v 22.3 c 0,3.4 0.1,5.6 0.2,6.5 0.1,0.9 0.5,1.6 1.1,2 0.6,0.5 1.8,0.7 3.4,0.7 h 0.8 v 1.8 h -16.8 v -1.8 h 1.3 c 1.8,0 3,-0.3 3.5,-0.8 0.5,-0.5 0.9,-1.2 1,-1.9 0.1,-0.7 0.1,-2.9 0.1,-6.5 v -9.7 c 0,-3.8 -0.2,-6.1 -0.5,-6.9 -0.3,-0.8 -0.8,-1.4 -1.4,-1.6 -0.6,-0.2 -1.6,-0.3 -3,-0.3 h -1 v -1.8 c 4.5,-0.5 8,-1.2 10.5,-2.1 h 0.8 z m -7.3,-16.4 c 0,-1.1 0.4,-2.1 1.2,-2.9 0.8,-0.8 1.7,-1.2 2.8,-1.2 1.1,0 2,0.4 2.8,1.2 0.8,0.8 1.1,1.8 1.1,2.9 0,1.1 -0.4,2.1 -1.1,2.9 -0.8,0.8 -1.7,1.2 -2.8,1.2 -1.1,0 -2,-0.4 -2.8,-1.2 -0.8,-0.7 -1.2,-1.7 -1.2,-2.9 z"
   id="path166"
   inkscape:connector-curvature="0" />
	<path
   d="m 761.9,112.7 h 1.4 c -0.2,4.5 -2.4,6.7 -6.4,6.7 -1.7,0 -3.1,-0.5 -4.1,-1.4 -1,-0.9 -1.7,-2.3 -2,-4.2 -2.5,1.9 -4.8,3.2 -6.9,4.2 -2.1,0.9 -4,1.4 -5.6,1.4 -2.1,0 -3.9,-0.6 -5.4,-1.9 -1.5,-1.3 -2.3,-2.9 -2.3,-5 0,-2.7 1.3,-5 3.8,-7 2.5,-2 6.1,-4 10.5,-5.9 l 5.9,-2.5 v -1.6 c 0,-2.2 -0.1,-3.8 -0.4,-4.8 -0.3,-1 -1,-1.9 -2.2,-2.7 -1.2,-0.8 -2.7,-1.2 -4.6,-1.2 -3.8,0 -5.9,1.3 -6.3,3.9 -0.4,2.7 -1.5,4 -3.2,4 -1.5,0 -2.3,-0.8 -2.3,-2.3 0,-1.5 1,-3.1 3.1,-4.8 2.1,-1.7 5.2,-2.6 9.6,-2.6 3.2,0 5.7,0.5 7.5,1.6 1.8,1 2.9,2.2 3.5,3.6 0.6,1.3 0.9,3.4 0.9,6.1 v 13 c 0,3 0.2,5 0.5,5.8 0.3,0.9 1,1.3 2,1.3 1.6,0.1 2.6,-1.2 3,-3.7 z m -11,-13.7 -4.1,1.7 c -6.5,2.7 -9.8,6.2 -9.8,10.3 0,1.6 0.4,3 1.3,4 0.8,1 1.9,1.5 3.3,1.5 1.2,0 2.6,-0.4 4.1,-1.2 1.6,-0.8 3.3,-2 5.3,-3.6 V 99 Z"
   id="path168"
   inkscape:connector-curvature="0" />
</g>
<path
   d="m 568.74559,156.84321 h 215 v 51.5 h -215 z"
   id="path172"
   inkscape:connector-curvature="0"
   style="fill:#ffffff" />
<g
   id="g208"
   transform="translate(-44.254411,-40.856794)">
	<path
   d="m 294.7,176 0.4,0.9 c -1.4,1.1 -2.9,1.6 -4.4,1.6 -1.5,0 -2.7,-0.5 -3.4,-1.4 -0.8,-0.9 -1.1,-2.4 -1.1,-4.4 v -1.6 c 0,-1.8 -0.2,-3.1 -0.5,-3.8 -0.3,-0.7 -0.7,-1.3 -1.3,-1.5 -0.6,-0.3 -1.5,-0.4 -2.7,-0.4 h -1 l -2.3,7.7 c -0.4,1.3 -0.6,2 -0.6,2.3 0,0.7 0.3,1.2 0.9,1.5 0.6,0.3 1.2,0.4 1.9,0.4 h 0.5 l -0.3,0.9 H 270 l 0.3,-0.9 h 0.4 c 0.8,0 1.5,-0.1 2.1,-0.4 0.6,-0.3 0.9,-0.6 1.1,-1 0.2,-0.4 0.5,-1.2 0.9,-2.5 l 5.1,-16.9 c 0.4,-1.3 0.6,-2.1 0.6,-2.5 0,-0.5 -0.2,-0.8 -0.6,-1 -0.4,-0.2 -1.2,-0.4 -2.3,-0.4 l 0.3,-0.9 h 6.9 c 1.9,0 3.4,0 4.3,0.1 0.9,0.1 1.9,0.4 2.9,1 1,0.5 1.8,1.2 2.3,2.1 0.5,0.9 0.8,1.9 0.8,2.9 0,2 -0.8,3.7 -2.5,5.1 -1.7,1.4 -4.3,2.1 -7.9,2.2 1.9,0.7 3.2,1.6 4,2.8 0.7,1.2 1.2,2.9 1.3,5 0.1,1.6 0.2,2.7 0.5,3.3 0.3,0.6 0.8,0.8 1.6,0.8 0.7,0.1 1.6,-0.3 2.6,-1 z M 281,164.6 h 0.8 c 3.3,0 5.8,-0.6 7.5,-1.9 1.7,-1.3 2.5,-3.1 2.5,-5.4 0,-1.6 -0.5,-2.8 -1.5,-3.6 -1,-0.8 -2.5,-1.2 -4.5,-1.2 -0.3,0 -0.7,0 -1,0 z"
   id="path174"
   inkscape:connector-curvature="0"
   style="fill:#313030" />
	<path
   d="m 309.4,173.2 h 0.9 c -1.7,3.7 -3.8,5.5 -6.4,5.5 -1.1,0 -1.9,-0.4 -2.6,-1.1 -0.7,-0.7 -1,-1.8 -1,-3 0,-1.6 0.4,-3.4 1.3,-5.5 0.9,-2 2.1,-3.8 3.7,-5.3 1.6,-1.5 3,-2.2 4.2,-2.2 0.7,0 1.3,0.2 1.7,0.7 0.4,0.5 0.6,1 0.6,1.7 0,1.4 -0.7,2.8 -2.1,4.1 -1.4,1.3 -3.5,2.5 -6.3,3.7 -0.4,1.1 -0.5,2.2 -0.5,3.2 0,0.8 0.2,1.5 0.5,1.9 0.3,0.4 0.8,0.6 1.4,0.6 1.7,0.1 3.3,-1.4 4.6,-4.3 z m -5.8,-2.3 c 1.7,-0.8 3.2,-1.8 4.5,-3.1 1.3,-1.3 2,-2.5 2,-3.6 0,-0.5 -0.1,-0.9 -0.3,-1.1 -0.2,-0.2 -0.5,-0.4 -0.9,-0.4 -0.8,0 -1.7,0.8 -2.8,2.3 -1,1.5 -1.8,3.4 -2.5,5.9 z"
   id="path176"
   inkscape:connector-curvature="0"
   style="fill:#313030" />
	<path
   d="m 325.4,173.9 c 0,1.2 -0.5,2.3 -1.4,3.3 -0.9,1 -2.3,1.5 -4.1,1.5 -1.3,0 -2.3,-0.3 -3,-0.9 -0.7,-0.6 -1,-1.2 -1,-1.9 0,-0.4 0.1,-0.7 0.3,-0.9 0.2,-0.3 0.5,-0.4 0.8,-0.4 0.7,0 1.1,0.4 1.1,1.1 0,0.2 0,0.4 -0.1,0.7 -0.1,0.1 -0.1,0.3 -0.1,0.3 0,0.3 0.2,0.6 0.6,0.8 0.4,0.2 0.9,0.3 1.4,0.3 0.9,0 1.7,-0.3 2.4,-0.8 0.7,-0.6 1.1,-1.3 1.1,-2.3 0,-0.8 -0.5,-2.2 -1.5,-4 -1.2,-2.1 -1.8,-3.7 -1.8,-4.6 0,-1.3 0.5,-2.3 1.5,-3.2 1,-0.9 2.1,-1.3 3.4,-1.3 0.9,0 1.7,0.2 2.4,0.7 0.7,0.5 1,1 1,1.5 0,0.7 -0.3,1 -0.9,1 -0.4,0 -0.7,-0.4 -0.9,-1.2 -0.2,-0.8 -0.8,-1.3 -1.7,-1.3 -0.7,0 -1.4,0.2 -1.9,0.6 -0.5,0.4 -0.8,0.9 -0.8,1.6 0,0.9 0.4,2.1 1.3,3.7 0.8,1.4 1.4,2.5 1.7,3.2 0,1 0.2,1.7 0.2,2.5 z"
   id="path178"
   inkscape:connector-curvature="0"
   style="fill:#313030" />
	<path
   d="m 340.5,173.9 h 0.9 c -0.6,1.3 -1.4,2.4 -2.4,3.4 -1,1 -1.9,1.5 -2.8,1.5 -0.6,0 -1.1,-0.2 -1.6,-0.7 -0.5,-0.4 -0.7,-1.1 -0.7,-1.9 0,-0.7 0.4,-2 1.1,-4 l 2.2,-6 c 0.5,-1.4 0.8,-2.2 0.8,-2.5 0,-0.3 -0.1,-0.5 -0.2,-0.6 -0.1,-0.1 -0.3,-0.2 -0.6,-0.2 -0.5,0 -1.1,0.4 -1.8,1.2 -0.7,0.8 -1.2,1.5 -1.5,2.1 H 333 c 0.7,-1.4 1.5,-2.5 2.5,-3.4 1,-0.9 1.8,-1.2 2.6,-1.2 0.6,0 1.1,0.2 1.5,0.6 0.4,0.4 0.6,1 0.6,1.6 0,0.7 -0.3,2 -1,3.8 l -1.9,5.1 c -0.7,1.8 -1,3 -1,3.5 0,0.4 0.1,0.7 0.2,0.8 0.1,0.2 0.4,0.3 0.7,0.3 0.9,0.1 2,-1.1 3.3,-3.4 z M 339.1,153 c 0,-0.5 0.2,-0.9 0.5,-1.2 0.3,-0.3 0.7,-0.5 1.2,-0.5 0.5,0 0.9,0.2 1.2,0.5 0.3,0.3 0.5,0.7 0.5,1.2 0,0.5 -0.2,0.9 -0.5,1.2 -0.3,0.3 -0.7,0.5 -1.2,0.5 -0.5,0 -0.9,-0.2 -1.2,-0.5 -0.3,-0.3 -0.5,-0.7 -0.5,-1.2 z"
   id="path180"
   inkscape:connector-curvature="0"
   style="fill:#313030" />
	<path
   d="m 360.7,174.6 h 1 c -0.6,1.1 -1.3,2 -2.2,2.9 -0.9,0.8 -1.7,1.2 -2.5,1.2 -0.7,0 -1.2,-0.2 -1.6,-0.6 -0.4,-0.4 -0.5,-1 -0.5,-1.9 0,-0.4 0,-0.7 0.1,-1 -1.9,2.3 -3.6,3.5 -5.1,3.5 -0.9,0 -1.6,-0.4 -2.3,-1.1 -0.6,-0.7 -0.9,-1.8 -0.9,-3.1 0,-1.9 0.5,-3.9 1.6,-6.1 1,-2.2 2.3,-3.8 3.9,-5 1.5,-1.2 2.9,-1.8 4,-1.8 0.6,0 1.1,0.1 1.5,0.4 0.4,0.3 0.7,0.7 1,1.2 l 2.4,-7.9 c 0.3,-0.9 0.4,-1.5 0.4,-1.7 0,-0.3 -0.1,-0.5 -0.3,-0.7 -0.2,-0.1 -0.6,-0.2 -1.3,-0.2 h -0.5 l 0.3,-0.8 c 1.9,0 3.4,-0.2 4.5,-0.7 h 0.5 l -6.3,20.6 c -0.8,2.5 -1.2,4 -1.2,4.5 0,0.3 0.1,0.6 0.2,0.7 0.1,0.2 0.3,0.2 0.5,0.2 0.4,0 0.8,-0.2 1.3,-0.7 0.5,-0.5 1,-0.9 1.5,-1.9 z m -11.8,0.9 c 0,0.7 0.1,1.3 0.4,1.7 0.3,0.4 0.6,0.6 1.1,0.6 0.9,0 1.9,-0.6 3,-1.8 1.1,-1.2 2.2,-3.2 3.2,-6 1,-2.8 1.4,-4.6 1.4,-5.3 0,-0.5 -0.2,-0.9 -0.5,-1.3 -0.3,-0.4 -0.8,-0.6 -1.3,-0.6 -0.8,0 -1.7,0.5 -2.7,1.5 -0.9,1 -1.9,2.7 -3,5.2 -1,2.3 -1.6,4.3 -1.6,6 z"
   id="path182"
   inkscape:connector-curvature="0"
   style="fill:#313030" />
	<path
   d="m 376.3,173.2 h 0.9 c -1.7,3.7 -3.8,5.5 -6.4,5.5 -1.1,0 -1.9,-0.4 -2.6,-1.1 -0.7,-0.7 -1,-1.8 -1,-3 0,-1.6 0.4,-3.4 1.3,-5.5 0.9,-2 2.1,-3.8 3.7,-5.3 1.6,-1.5 3,-2.2 4.2,-2.2 0.7,0 1.3,0.2 1.7,0.7 0.4,0.5 0.6,1 0.6,1.7 0,1.4 -0.7,2.8 -2.1,4.1 -1.4,1.3 -3.5,2.5 -6.3,3.7 -0.4,1.1 -0.5,2.2 -0.5,3.2 0,0.8 0.2,1.5 0.5,1.9 0.3,0.4 0.8,0.6 1.4,0.6 1.7,0.1 3.2,-1.4 4.6,-4.3 z m -5.8,-2.3 c 1.7,-0.8 3.2,-1.8 4.5,-3.1 1.3,-1.3 2,-2.5 2,-3.6 0,-0.5 -0.1,-0.9 -0.3,-1.1 -0.2,-0.2 -0.5,-0.4 -0.9,-0.4 -0.8,0 -1.7,0.8 -2.8,2.3 -1,1.5 -1.9,3.4 -2.5,5.9 z"
   id="path184"
   inkscape:connector-curvature="0"
   style="fill:#313030" />
	<path
   d="m 397.9,174.5 h 1 c -0.8,1.4 -1.6,2.5 -2.4,3.2 -0.8,0.7 -1.6,1.1 -2.5,1.1 -0.6,0 -1.1,-0.2 -1.5,-0.5 -0.4,-0.3 -0.6,-0.9 -0.6,-1.6 0,-0.6 0.3,-1.7 0.9,-3.5 l 2.1,-6 c 0.6,-1.6 0.8,-2.7 0.8,-3.2 0,-0.4 -0.1,-0.7 -0.3,-1 -0.2,-0.2 -0.5,-0.3 -0.9,-0.3 -1,0 -2.3,1.2 -3.9,3.5 -1.6,2.3 -3,5.4 -4.1,9.1 l -1,3.1 h -2.4 l 3.4,-11.1 c 0.6,-2 0.9,-3.2 0.9,-3.5 0,-0.2 0,-0.4 -0.1,-0.5 -0.1,-0.1 -0.2,-0.2 -0.4,-0.2 -0.8,0 -1.7,1 -2.7,2.9 h -0.9 c 1.6,-3 3.2,-4.4 4.6,-4.4 0.5,0 0.9,0.2 1.1,0.5 0.3,0.3 0.4,0.8 0.4,1.4 0,1.1 -0.4,2.9 -1.3,5.2 2.4,-4.7 4.7,-7.1 6.9,-7.1 0.7,0 1.3,0.2 1.9,0.7 0.6,0.5 0.8,1.2 0.8,2.1 0,0.6 -0.3,1.7 -0.8,3.3 L 395,174 c -0.6,1.7 -0.8,2.6 -0.8,2.8 0,0.2 0.1,0.4 0.2,0.6 0.1,0.1 0.3,0.2 0.5,0.2 0.4,0 0.9,-0.3 1.4,-0.8 0.5,-0.5 1,-1.3 1.6,-2.3 z"
   id="path186"
   inkscape:connector-curvature="0"
   style="fill:#313030" />
	<path
   d="m 414.5,162.2 -0.3,0.9 h -2.9 l -2.6,8.5 c -0.9,2.8 -1.3,4.4 -1.3,4.9 0,0.3 0.1,0.6 0.2,0.7 0.1,0.2 0.3,0.2 0.6,0.2 0.5,0 1.1,-0.4 1.8,-1.3 0.8,-0.9 1.4,-2 2,-3.3 h 0.9 c -0.8,1.9 -1.7,3.4 -2.7,4.4 -1,1 -2,1.5 -2.8,1.5 -0.7,0 -1.2,-0.2 -1.6,-0.7 -0.4,-0.5 -0.6,-1.1 -0.6,-1.8 0,-0.6 0.4,-2.2 1.2,-4.9 l 2.5,-8.3 h -2.7 l 0.3,-0.9 h 2.7 l 1.8,-5.9 h 2.3 l -1.8,5.9 h 3 z"
   id="path188"
   inkscape:connector-curvature="0"
   style="fill:#313030" />
	<path
   d="m 426.9,173.9 c 0,1.2 -0.5,2.3 -1.4,3.3 -0.9,1 -2.3,1.5 -4.1,1.5 -1.3,0 -2.3,-0.3 -3,-0.9 -0.7,-0.6 -1,-1.2 -1,-1.9 0,-0.4 0.1,-0.7 0.3,-0.9 0.2,-0.2 0.5,-0.4 0.8,-0.4 0.7,0 1.1,0.4 1.1,1.1 0,0.2 0,0.4 -0.1,0.7 -0.1,0.1 -0.1,0.3 -0.1,0.3 0,0.3 0.2,0.6 0.6,0.8 0.4,0.2 0.9,0.3 1.4,0.3 0.9,0 1.7,-0.3 2.4,-0.8 0.7,-0.6 1.1,-1.3 1.1,-2.3 0,-0.8 -0.5,-2.2 -1.5,-4 -1.2,-2.1 -1.8,-3.7 -1.8,-4.6 0,-1.3 0.5,-2.3 1.5,-3.2 1,-0.9 2.1,-1.3 3.4,-1.3 0.9,0 1.7,0.2 2.4,0.7 0.7,0.5 1,1 1,1.5 0,0.7 -0.3,1 -0.9,1 -0.4,0 -0.7,-0.4 -0.9,-1.2 -0.2,-0.8 -0.8,-1.3 -1.7,-1.3 -0.7,0 -1.4,0.2 -1.9,0.6 -0.5,0.4 -0.8,0.9 -0.8,1.6 0,0.9 0.4,2.1 1.3,3.7 0.8,1.4 1.4,2.5 1.7,3.2 0,1 0.2,1.7 0.2,2.5 z"
   id="path190"
   inkscape:connector-curvature="0"
   style="fill:#313030" />
	<path
   d="m 437.4,162.9 v -0.8 c 2.2,-0.3 3.7,-1 4.7,-2.2 1,-1.1 1.4,-2.1 1.4,-2.9 0,-0.6 -0.3,-0.9 -0.8,-0.9 -0.1,0 -0.2,0 -0.3,0 -0.3,0 -0.4,0 -0.5,0 -0.4,0 -0.9,-0.2 -1.3,-0.5 -0.4,-0.3 -0.6,-0.8 -0.6,-1.4 0,-0.7 0.2,-1.2 0.6,-1.6 0.4,-0.4 0.9,-0.6 1.5,-0.6 0.8,0 1.5,0.3 1.9,1 0.5,0.7 0.7,1.5 0.7,2.6 0,1.7 -0.7,3.3 -2,4.7 -1.1,1.6 -3,2.4 -5.3,2.6 z"
   id="path192"
   inkscape:connector-curvature="0"
   style="fill:#313030" />
	<path
   d="m 476.4,165.1 -1.8,7.8 c -0.7,2.8 -1.4,5.1 -2.2,7.1 -0.8,2 -1.7,3.4 -2.7,4.6 -1,1.1 -2.1,2 -3.4,2.5 -1.2,0.5 -2.6,0.8 -4.1,0.8 -2,0 -3.6,-0.5 -4.6,-1.4 -1,-0.9 -1.5,-1.9 -1.5,-2.8 0,-0.6 0.2,-1.1 0.5,-1.4 0.3,-0.4 0.7,-0.5 1.1,-0.5 0.4,0 0.8,0.2 1.1,0.5 0.3,0.3 0.5,0.8 0.5,1.3 0,0.2 0,0.4 0,0.6 0,0.3 -0.1,0.5 -0.1,0.6 0,0.6 0.3,1.2 0.9,1.6 0.6,0.4 1.3,0.7 2.2,0.7 1.2,0 2.3,-0.4 3.3,-1.3 1,-0.9 1.9,-2.2 2.6,-4.2 0.7,-2 1.6,-4.6 2.6,-8.1 0.8,-2.6 1.7,-5.3 2.7,-8.3 h -4.8 l 0.3,-0.9 h 4.9 c 1.8,-4.8 3.4,-8.1 4.8,-9.9 -1.8,0.7 -3.8,1 -6.1,1 -0.8,0 -1.9,-0.1 -3.1,-0.2 -0.7,-0.1 -1.2,-0.1 -1.5,-0.1 -1.7,0 -2.8,0.7 -3.4,2 h -0.9 c 0.3,-1.4 1,-2.6 2,-3.7 1,-1.1 2.3,-1.7 3.7,-1.7 1,0 2.2,0.4 3.6,1.3 1.3,0.8 2.4,1.2 3.2,1.2 1.2,0 2.3,-0.5 3.4,-1.5 0.6,-0.6 1.1,-0.9 1.5,-0.9 0.5,0 0.7,0.2 0.7,0.7 0,0.4 -0.4,1 -1.3,1.8 -0.6,0.5 -1.1,1 -1.3,1.5 -0.3,0.5 -0.6,1.4 -1,2.8 -0.4,1.4 -0.9,3.4 -1.5,5.9 h 3.3 l -0.3,0.9 h -3.3 z"
   id="path194"
   inkscape:connector-curvature="0"
   style="fill:#313030" />
	<path
   d="m 483.4,173.1 c 0,-1.6 0.4,-3.3 1.1,-5.1 0.7,-1.8 1.8,-3.3 3.1,-4.5 1.4,-1.1 2.7,-1.7 3.9,-1.7 1.2,0 2.1,0.5 2.9,1.5 0.7,1 1.1,2.3 1.1,4 0,2 -0.4,4 -1.3,5.8 -0.8,1.8 -1.9,3.2 -3.1,4.2 -1.3,1 -2.5,1.5 -3.7,1.5 -1.1,0 -2,-0.4 -2.8,-1.2 -0.8,-1 -1.2,-2.5 -1.2,-4.5 z m 2.1,2.2 c 0,0.7 0.2,1.3 0.5,1.8 0.4,0.5 0.9,0.7 1.5,0.7 1.7,0 3.2,-1.7 4.3,-5 1.1,-3.3 1.7,-5.8 1.7,-7.6 0,-0.9 -0.2,-1.6 -0.5,-2 -0.3,-0.4 -0.9,-0.7 -1.6,-0.7 -1.6,0 -3,1.5 -4.2,4.6 -1.1,3.2 -1.7,5.9 -1.7,8.2 z"
   id="path196"
   inkscape:connector-curvature="0"
   style="fill:#313030" />
	<path
   d="m 516.3,174.2 h 0.8 c -1.1,3 -2.6,4.6 -4.5,4.6 -0.6,0 -1.1,-0.2 -1.4,-0.5 -0.3,-0.3 -0.5,-0.9 -0.5,-1.6 0,-1 0.4,-2.6 1.1,-4.7 -2.3,4.6 -4.5,6.9 -6.8,6.9 -0.8,0 -1.5,-0.3 -1.9,-0.8 -0.5,-0.5 -0.7,-1.1 -0.7,-1.9 0,-0.7 0.3,-2 0.9,-3.7 l 2.4,-7 c 0.4,-1 0.5,-1.7 0.5,-1.9 0,-0.3 -0.2,-0.5 -0.5,-0.5 -0.8,0 -1.7,1.1 -2.7,3.3 h -0.9 c 0.5,-1.4 1.2,-2.5 2.1,-3.4 0.9,-0.9 1.7,-1.3 2.5,-1.3 0.5,0 0.9,0.2 1.3,0.5 0.4,0.3 0.5,0.8 0.5,1.4 0,0.5 -0.2,1.4 -0.7,2.7 l -2.5,7.2 c -0.5,1.4 -0.7,2.3 -0.7,2.8 0,0.4 0.1,0.7 0.3,0.9 0.2,0.2 0.5,0.3 0.8,0.3 1.1,0 2.5,-1.2 4.1,-3.7 1.6,-2.4 3.1,-6.1 4.5,-10.9 l 0.3,-1.1 h 2.3 l -3.4,11.2 c -0.5,1.8 -0.8,2.9 -0.8,3.3 0,0.3 0.1,0.6 0.2,0.7 0.1,0.2 0.3,0.2 0.6,0.2 1,0.2 1.9,-0.9 2.8,-3 z"
   id="path198"
   inkscape:connector-curvature="0"
   style="fill:#313030" />
	<path
   d="m 523.6,166.9 h -0.9 c 0.5,-1.5 1.2,-2.7 2.1,-3.7 0.8,-1 1.6,-1.5 2.5,-1.5 0.6,0 1,0.2 1.3,0.7 0.3,0.5 0.4,1.1 0.4,2 0,1.1 -0.3,2.7 -0.9,4.8 0.1,-0.1 0.3,-0.6 0.6,-1.4 1,-2.2 1.8,-3.7 2.5,-4.7 0.7,-1 1.5,-1.4 2.2,-1.4 0.5,0 0.8,0.1 1.1,0.4 0.3,0.3 0.4,0.6 0.4,1 0,0.4 -0.1,0.7 -0.3,1 -0.2,0.3 -0.5,0.4 -0.8,0.4 -0.4,0 -0.7,-0.2 -1.1,-0.6 -0.1,-0.2 -0.3,-0.3 -0.4,-0.3 -0.7,0 -1.7,1.6 -3,4.7 -1.4,3.1 -2.4,6.1 -3.3,8.8 l -0.4,1.4 h -2.3 l 3.1,-10.4 c 0.6,-2 0.9,-3.3 0.9,-4 0,-0.4 0,-0.7 -0.1,-0.8 -0.1,-0.2 -0.2,-0.3 -0.4,-0.3 -0.4,0 -1,0.5 -1.6,1.4 -0.9,0.9 -1.3,1.8 -1.6,2.5 z"
   id="path200"
   inkscape:connector-curvature="0"
   style="fill:#313030" />
	<path
   d="m 554.7,174.5 h 1 c -0.8,1.4 -1.6,2.5 -2.4,3.2 -0.8,0.7 -1.6,1.1 -2.5,1.1 -0.6,0 -1.1,-0.2 -1.5,-0.5 -0.4,-0.4 -0.6,-0.9 -0.6,-1.6 0,-0.6 0.3,-1.7 0.9,-3.5 l 2.1,-6 c 0.6,-1.6 0.8,-2.7 0.8,-3.2 0,-0.4 -0.1,-0.7 -0.3,-1 -0.2,-0.2 -0.5,-0.3 -0.9,-0.3 -1,0 -2.3,1.2 -3.9,3.5 -1.6,2.3 -3,5.4 -4.1,9.1 l -1,3.1 H 540 l 3.4,-11.1 c 0.6,-2 0.9,-3.2 0.9,-3.5 0,-0.2 0,-0.4 -0.1,-0.5 -0.1,-0.1 -0.2,-0.2 -0.4,-0.2 -0.8,0 -1.7,1 -2.7,2.9 h -0.9 c 1.6,-3 3.2,-4.4 4.6,-4.4 0.5,0 0.9,0.2 1.1,0.5 0.2,0.3 0.4,0.8 0.4,1.4 0,1.1 -0.4,2.9 -1.3,5.2 2.4,-4.7 4.7,-7.1 6.9,-7.1 0.7,0 1.3,0.2 1.9,0.7 0.6,0.5 0.8,1.2 0.8,2.1 0,0.6 -0.3,1.7 -0.8,3.3 l -2.1,6.2 c -0.6,1.7 -0.8,2.6 -0.8,2.8 0,0.2 0.1,0.4 0.2,0.6 0.1,0.1 0.3,0.2 0.5,0.2 0.4,0 0.9,-0.3 1.4,-0.8 0.6,-0.4 1.1,-1.2 1.7,-2.2 z"
   id="path202"
   inkscape:connector-curvature="0"
   style="fill:#313030" />
	<path
   d="m 574,161.9 h 2.3 l -3.5,11.5 c -0.5,1.7 -0.8,2.7 -0.8,3 0,0.3 0.1,0.5 0.2,0.6 0.1,0.1 0.3,0.2 0.5,0.2 0.9,0 1.9,-1 3.1,-3.1 h 0.8 c -0.5,1.2 -1.2,2.2 -2.2,3.2 -0.9,1 -1.8,1.4 -2.6,1.4 -0.6,0 -1.1,-0.2 -1.4,-0.7 -0.3,-0.5 -0.5,-1 -0.5,-1.7 0,-0.5 0.1,-1.2 0.4,-2.1 -0.6,1 -1.4,2 -2.6,3 -1.1,1 -2.2,1.5 -3.1,1.5 -0.9,0 -1.7,-0.4 -2.4,-1.2 -0.7,-0.8 -1,-1.8 -1,-3.1 0,-1.8 0.5,-3.7 1.5,-5.7 1,-2 2.3,-3.7 4,-5.1 1.6,-1.4 3,-2 4.2,-2 0.7,0 1.2,0.2 1.6,0.5 0.4,0.3 0.7,0.8 0.8,1.5 z M 563.7,175 c 0,0.9 0.1,1.5 0.4,1.9 0.3,0.4 0.7,0.7 1.2,0.7 0.9,0 1.9,-0.6 3.1,-1.9 1.2,-1.3 2.2,-3.2 3.1,-5.8 0.9,-2.6 1.3,-4.4 1.3,-5.3 0,-0.5 -0.1,-1 -0.4,-1.4 -0.3,-0.4 -0.7,-0.6 -1.2,-0.6 -1.6,0 -3.2,1.6 -4.9,4.7 -1.7,3.2 -2.6,5.8 -2.6,7.7 z"
   id="path204"
   inkscape:connector-curvature="0"
   style="fill:#313030" />
	<path
   d="m 589.4,173.5 h 0.9 c -1.3,3.5 -3,5.2 -5.1,5.2 -0.7,0 -1.3,-0.2 -1.7,-0.7 -0.4,-0.5 -0.6,-1.1 -0.6,-1.8 0,-0.7 0.4,-2.4 1.3,-5.2 l 4.6,-15.1 c 0.4,-1.3 0.6,-2 0.6,-2.2 0,-0.3 -0.1,-0.5 -0.3,-0.7 -0.2,-0.1 -0.6,-0.2 -1.3,-0.2 H 587 l 0.3,-0.8 c 2.2,0 3.7,-0.3 4.7,-0.7 h 0.5 l -6.3,20.7 c -0.1,0.3 -0.3,0.9 -0.6,1.8 -0.4,1.1 -0.6,2 -0.6,2.6 0,0.4 0.1,0.7 0.2,0.9 0.2,0.2 0.4,0.3 0.7,0.3 0.4,0 1,-0.3 1.7,-0.9 0.6,-0.7 1.2,-1.7 1.8,-3.2 z"
   id="path206"
   inkscape:connector-curvature="0"
   style="fill:#313030" />
</g>
<g
   display="none"
   id="g218"
   style="display:none"
   transform="translate(0,-320)">
	<defs
   id="defs211">
		<rect
   id="SVGID_1_"
   x="30.5"
   y="38.799999"
   width="1398.6"
   height="203.39999" />
	</defs>
	<clipPath
   id="SVGID_2_"
   display="inline"
   style="display:inline">
		<use
   xlink:href="#SVGID_1_"
   overflow="visible"
   id="use213"
   style="overflow:visible"
   x="0"
   y="0"
   width="100%"
   height="100%" />
	</clipPath>
	<line
   display="inline"
   clip-path="url(#SVGID_2_)"
   x1="818.70001"
   y1="235.5"
   x2="1429"
   y2="235.5"
   id="line216"
   style="display:inline;fill:none;stroke:#231f20" />
</g>
<g
   id="g228"
   transform="translate(-44.254411,-40.856794)">
	<defs
   id="defs221">
		<rect
   id="SVGID_3_"
   x="30.5"
   y="38.799999"
   width="1398.6"
   height="203.39999" />
	</defs>
	<clipPath
   id="SVGID_4_">
		<use
   xlink:href="#SVGID_3_"
   overflow="visible"
   id="use223"
   style="overflow:visible"
   x="0"
   y="0"
   width="100%"
   height="100%" />
	</clipPath>
	<polyline
   clip-path="url(#SVGID_4_)"
   points="613.8,231.1 619.8,231.1 619.8,223.7    629.8,223.7 629.8,231.1 643.1,231.1 643.1,234.4 653.1,234.4 653.1,236.4 654.5,236.4 654.5,221.1 663.8,221.1 664.5,201    667.1,201 667.1,197 672.5,197 672.5,201 676.5,201 676.5,218.4 679.8,218.4 679.8,237.7 683.1,237.7 683.1,241.1 686.5,241.1    686.5,234.4 689.8,233.7 689.8,205.7 693.8,205.7 693.2,181 695.8,181 695.2,167 705.7,166.8 706,184.4 708.9,184.4 708.7,206    712.6,206 711.8,238.8 714.3,238.8 713.7,234.5 719.8,234.4 720.9,236.9 723.2,236.9 723.3,232.4 726.2,232.4 726.2,227.9    733.2,227.9 733.7,231.9 735.6,231.1 736.4,233.5 738,233.5 736.6,207 739.8,207 739.8,203.8 749.9,204.4 750.8,208.1 752.7,207.9    752.4,218.8 758.3,219.3 758.3,223.3 764.1,222.8 763.9,225.2 772.1,224.9 772.4,205.7 796.9,206 797.7,222 801.5,221.1    801.5,217.2 809.9,217.2 809.9,219.9 812.1,221.1 812.2,227.9 817.2,222.3 817,201 826.5,200.9 826.5,231.1  "
   id="polyline226"
   style="fill:none;stroke:#231f20;stroke-width:2" />
</g>
<line
   x1="653.24554"
   y1="126.2432"
   x2="653.24554"
   y2="111.6432"
   id="line230"
   style="fill:none;stroke:#231f20;stroke-width:2" />
<line
   x1="696.64557"
   y1="162.0432"
   x2="696.64557"
   y2="147.44319"
   id="line232"
   style="fill:none;stroke:#231f20;stroke-width:2" />
<line
   x1="657.74554"
   y1="126.2432"
   x2="657.74554"
   y2="111.6432"
   id="line234"
   style="fill:none;stroke:#231f20;stroke-width:2" />
<line
   x1="701.04553"
   y1="162.0432"
   x2="701.04553"
   y2="147.44319"
   id="line236"
   style="fill:none;stroke:#231f20;stroke-width:2" />
<image
   sodipodi:absref="/home/cpldc/Documents/cpldc/wethepeople/assets/images/Screen Shot 2015-05-31 at 1.46.39 PM.png"
   xlink:href="Screen Shot 2015-05-31 at 1.46.39 PM.png"
   y="-147.664"
   x="33.994801"
   style="display:none;overflow:visible"
   id="image238"
   height="112"
   width="102"
   overflow="visible"
   display="none">
</image>
</svg>